<svg xmlns="http://www.w3.org/2000/svg" width="43" height="44" viewBox="0 0 43 44">
    <g fill="none" fill-rule="evenodd">
        <g>
            <g>
                <path fill="#2C269A" fill-rule="nonzero" stroke="#2C269A" stroke-width=".622" d="M20.228-.311c1.048.001 1.997.427 2.685 1.114.687.687 1.112 1.636 1.113 2.685h0V8.68H22.01V3.488c0-.492-.2-.938-.522-1.26-.322-.323-.767-.522-1.26-.522h0-1.083c0 1.05-.27 1.651-.704 2.086-.435.435-1.036.704-1.7.704h0-9.765c-.664 0-1.265-.269-1.7-.704-.434-.435-.703-1.036-.703-1.7h0l-1.084-.386c-.492 0-.938.2-1.26.522-.323.322-.522.768-.522 1.26h0v34.875c0 .492.2.937.522 1.26.322.322.768.521 1.26.521h16.74c.492 0 .937-.199 1.26-.521.322-.323.521-.768.521-1.26h0V22.009h2.017v16.354c-.001 1.049-.426 1.998-1.113 2.685-.688.687-1.637 1.112-2.685 1.113h0-16.74c-1.05 0-1.998-.426-2.685-1.113S-.31 39.412-.311 38.363h0V3.487C-.31 2.44.116 1.49.803.803S2.439-.31 3.488-.311h0z" transform="translate(-273 -173) translate(274 174)"/>
                <path fill="#ABE9F8" d="M10.368 10.368H41.472V20.736H10.368z" transform="translate(-273 -173) translate(274 174)"/>
                <path fill="#2C269A" fill-rule="nonzero" d="M9.765 9.765v11.16H41.85V9.765H9.765zm30.69 9.765H11.16v-8.37h29.295v8.37z" transform="translate(-273 -173) translate(274 174)"/>
                <path fill="#F86302" fill-rule="nonzero" d="M13.278 17.344L14.648 16.553 14.648 18.135 16.043 18.135 16.043 16.553 17.412 17.344 18.11 16.136 16.74 15.345 18.11 14.554 17.412 13.346 16.043 14.137 16.043 12.555 14.648 12.555 14.648 14.137 13.278 13.346 12.58 14.554 13.95 15.345 12.58 16.136zM20.253 17.344L21.623 16.553 21.623 18.135 23.018 18.135 23.018 16.553 24.388 17.344 25.085 16.136 23.715 15.345 25.085 14.554 24.388 13.346 23.018 14.137 23.018 12.555 21.623 12.555 21.623 14.137 20.253 13.346 19.555 14.554 20.925 15.345 19.555 16.136zM27.228 17.344L28.598 16.553 28.598 18.135 29.993 18.135 29.993 16.553 31.363 17.344 32.06 16.136 30.69 15.345 32.06 14.554 31.363 13.346 29.993 14.137 29.993 12.555 28.598 12.555 28.598 14.137 27.228 13.346 26.53 14.554 27.9 15.345 26.53 16.136zM34.203 17.344L35.573 16.553 35.573 18.135 36.968 18.135 36.968 16.553 38.338 17.344 39.035 16.136 37.665 15.345 39.035 14.554 38.338 13.346 36.968 14.137 36.968 12.555 35.573 12.555 35.573 14.137 34.203 13.346 33.506 14.554 34.875 15.345 33.506 16.136z" transform="translate(-273 -173) translate(274 174)"/>
            </g>
        </g>
    </g>
</svg>
