<svg width="26" height="26" viewBox="0 0 26 26" xmlns="http://www.w3.org/2000/svg">
    <g fill="none" fill-rule="evenodd">
        <path d="M0 0h26v26H0z"/>
        <g fill="#29B6F6" fill-rule="nonzero">
            <path d="M8.75 6.5c-.41 0-.75-.34-.75-.75v-3c0-.41.34-.75.75-.75s.75.34.75.75v3c0 .41-.34.75-.75.75zM16.75 6.5c-.41 0-.75-.34-.75-.75v-3c0-.41.34-.75.75-.75s.75.34.75.75v3c0 .41-.34.75-.75.75zM9.25 15.25c-.13 0-.26-.03-.38-.08-.13-.05-.23-.12-.33-.21-.18-.19-.29-.44-.29-.71 0-.13.03-.26.08-.38s.12-.23.21-.33c.1-.09.2-.16.33-.21.36-.15.81-.07 1.09.21.18.19.29.45.29.71 0 .06-.01.13-.02.2-.01.06-.03.12-.06.18-.02.06-.05.12-.09.18-.03.05-.08.1-.12.15-.19.18-.45.29-.71.29zM12.75 15.25c-.13 0-.26-.03-.38-.08-.13-.05-.23-.12-.33-.21-.18-.19-.29-.44-.29-.71 0-.13.03-.26.08-.38s.12-.23.21-.33c.1-.09.2-.16.33-.21.36-.16.81-.07 1.09.21.18.19.29.45.29.71 0 .06-.01.13-.02.2-.01.06-.03.12-.06.18-.02.06-.05.12-.09.18-.03.05-.08.1-.12.15-.19.18-.45.29-.71.29zM16.25 15.25c-.13 0-.26-.03-.38-.08-.13-.05-.23-.12-.33-.21l-.12-.15a.757.757 0 0 1-.09-.18.636.636 0 0 1-.06-.18c-.01-.07-.02-.14-.02-.2 0-.26.11-.52.29-.71.1-.09.2-.16.33-.21.37-.16.81-.07 1.09.21.18.19.29.45.29.71 0 .06-.01.13-.02.2-.01.06-.03.12-.06.18-.02.06-.05.12-.09.18-.03.05-.08.1-.12.15-.19.18-.45.29-.71.29zM9.25 18.75c-.13 0-.26-.03-.38-.08s-.23-.12-.33-.21c-.18-.19-.29-.45-.29-.71 0-.13.03-.26.08-.38.05-.13.12-.24.21-.33.37-.37 1.05-.37 1.42 0 .18.19.29.45.29.71 0 .26-.11.52-.29.71-.19.18-.45.29-.71.29zM12.75 18.75c-.26 0-.52-.11-.71-.29-.18-.19-.29-.45-.29-.71 0-.13.03-.26.08-.38.05-.13.12-.24.21-.33.37-.37 1.05-.37 1.42 0 .09.09.16.2.21.33.05.12.08.25.08.38 0 .26-.11.52-.29.71-.19.18-.45.29-.71.29zM16.25 18.75c-.26 0-.52-.11-.71-.29a.933.933 0 0 1-.21-.33.995.995 0 0 1-.08-.38c0-.13.03-.26.08-.38.05-.13.12-.24.21-.33.23-.23.58-.34.9-.27.07.01.13.03.19.06.06.02.12.05.18.09.05.03.1.08.15.12.18.19.29.45.29.71 0 .26-.11.52-.29.71-.19.18-.45.29-.71.29zM21.25 10.59h-17c-.41 0-.75-.34-.75-.75s.34-.75.75-.75h17c.41 0 .75.34.75.75s-.34.75-.75.75z"/>
            <path d="M16.75 23.5h-8C5.1 23.5 3 21.4 3 17.75v-8.5C3 5.6 5.1 3.5 8.75 3.5h8c3.65 0 5.75 2.1 5.75 5.75v8.5c0 3.65-2.1 5.75-5.75 5.75zM8.75 5C5.89 5 4.5 6.39 4.5 9.25v8.5C4.5 20.61 5.89 22 8.75 22h8c2.86 0 4.25-1.39 4.25-4.25v-8.5C21 6.39 19.61 5 16.75 5h-8z"/>
        </g>
    </g>
</svg>
