<svg xmlns="http://www.w3.org/2000/svg" width="44" height="44" viewBox="0 0 44 44">
    <g fill="none" fill-rule="evenodd">
        <g>
            <g>
                <g transform="translate(-231 -246) translate(143 248) translate(90)">
                    <circle cx="20" cy="20" r="20" fill="#30BAFF" stroke="#F3FBFF" stroke-width="2.5"/>
                    <g fill="#FFF" fill-rule="nonzero" transform="translate(10 11.04)">
                        <path d="M20.002 2.537c-.413-.433-.984-.688-1.633-.688h-3.264v-.04c0-.491-.197-.963-.531-1.278C14.239.197 13.787 0 13.295 0h-5.9c-.511 0-.964.197-1.298.531-.334.334-.531.787-.531 1.278v.04H2.32c-.65 0-1.22.255-1.633.688C.275 2.95 0 3.54 0 4.17v9.794c0 .649.256 1.22.688 1.632.413.413 1.003.689 1.633.689h16.048c.65 0 1.22-.256 1.633-.689.413-.413.688-1.003.688-1.632V4.17c0-.65-.256-1.22-.688-1.633zm-.335 11.427h-.02c0 .354-.137.669-.373.905s-.55.373-.905.373H2.321c-.354 0-.669-.137-.905-.373s-.374-.551-.374-.905V4.17c0-.355.138-.67.374-.905.236-.236.55-.374.905-.374h3.796c.295 0 .53-.236.53-.53V1.79c0-.217.08-.413.217-.551.138-.138.334-.216.55-.216h5.881c.217 0 .413.078.55.216.139.138.217.334.217.55v.571c0 .295.236.531.531.531h3.796c.354 0 .669.138.905.374s.373.55.373.905v9.794z"/>
                        <path d="M10.345 4.229c-1.337 0-2.557.55-3.422 1.416-.885.885-1.416 2.084-1.416 3.422 0 1.337.55 2.556 1.416 3.422.885.885 2.085 1.416 3.422 1.416 1.337 0 2.557-.55 3.422-1.416.885-.885 1.416-2.085 1.416-3.422 0-1.338-.55-2.557-1.416-3.422-.865-.866-2.085-1.416-3.422-1.416zm2.675 7.532c-.689.669-1.633 1.102-2.675 1.102-1.042 0-1.986-.433-2.675-1.102-.688-.688-1.101-1.632-1.101-2.675 0-1.042.433-1.986 1.101-2.674.689-.689 1.633-1.102 2.675-1.102 1.042 0 1.986.433 2.675 1.102.688.688 1.101 1.632 1.101 2.674.02 1.043-.413 1.987-1.101 2.675z"/>
                        <circle cx="17.347" cy="5.173" r="1"/>
                    </g>
                </g>
            </g>
        </g>
    </g>
</svg>
