<svg xmlns="http://www.w3.org/2000/svg" xmlns:xlink="http://www.w3.org/1999/xlink" width="152" height="134" viewBox="0 0 152 134">
    <defs>
        <path id="31bj5qdfva" d="M61.648.403C41.203 1.86 27.224 9.454 18.58 17.013 9.85 24.605 6.456 32.16 5.242 34.313c-6.368 12.398-6.61 26.275-2.254 37.965 4.32 11.898 13.237 21.609 24.335 30.469 14.73 11.567 28.331 18.277 35.608 21.91 2.46 1.159 9.23 4.73 17.716 6.534 8.587 1.698 18.89 1.63 30.785-6.963 2.03-1.457 4.633-3.372 7.719-6.565 5.84-6.014 11.598-14.762 16.688-24.684 5.068-9.914 9.468-21.002 12.09-31.502 2.62-10.525 3.463-20.463 1.306-28.664-2.144-8.26-7.288-14.785-16.369-19.864-8.61-4.762-20.23-8.127-32.818-10.346C90.756.998 80.938.019 71.494.019c-3.342 0-6.638.123-9.846.384"/>
        <path id="58z0o3qujc" d="M.482 7.116c1.09 1.911 3.074 12.373 4.81 12.988 1.736.615 15.358 9.085 15.436 9.153.079.068-1.096 2.211.17 2.417 1.265.206 3.526-.1 3.23-1.183-.297-1.083.238-1.857-.625-2.606-.862-.75-14.33-11.226-14.33-11.226S8.608.061 3.893.023h-.03C.28.023-.605 5.21.483 7.116"/>
        <path id="k0izfwwmae" d="M.61.28L.182.77c-.12.138-.179.32-.16.504.018.183.11.35.256.46l8.817 6.732c.166.127.382.167.581.107.2-.06.36-.212.43-.41l.247-.691c.097-.273.006-.579-.224-.753L1.494.19C1.377.099 1.24.056 1.101.056.92.056.74.133.61.28"/>
        <path id="3vt4ynsirh" d="M.668 2.796c1.818 1.6 6.302 4.127 7.14 4.348.837.22 3.454-.7 2.71-1.614C9.772 4.617 5.9 3.08 5.9 3.08L4.232.579s-2.68-.204-2.59-.53c0 0-2.79 1.148-.974 2.747"/>
        <path id="wqe7bsnxzk" d="M5.026 2.703s-3.046 7.567-3.05 9.49C1.975 14.117.05 20.49.05 20.49s1.177 1.668 2.415.327C3.702 19.477 11.328 1.74 10.24.487 9.977.184 9.541.053 9.03.053c-1.604 0-3.947 1.294-4.004 2.65"/>
        <path id="52gr91d25m" d="M4.363 9.07c6.926 1.246 18.133 10.137 18.133 10.137l6.893-3.536S17.379 1.549 13.004 1.403C6.385 2.28 3.105.793.936.04c0 0-3.499 7.785 3.427 9.03"/>
        <path id="35qbb0b3oo" d="M.003 18.335c0 10.113 8.198 18.31 18.31 18.31 10.112 0 18.31-8.197 18.31-18.31 0-10.112-8.198-18.31-18.31-18.31C8.201.025.003 8.223.003 18.335m2.35-.196c0-8.706 7.058-15.764 15.764-15.764S33.881 9.433 33.881 18.14c0 8.707-7.058 15.765-15.764 15.765S2.353 26.846 2.353 18.139"/>
        <path id="8h9madakbr" d="M.025 1.64c0 .896.726 1.622 1.621 1.622.896 0 1.622-.726 1.622-1.621 0-.896-.726-1.622-1.622-1.622C.751.02.026.745.026 1.641"/>
        <path id="p6gbttp76u" d="M8.33.118L.092 8.629c-.103.107-.1.277.006.38.107.104.278.102.381-.005L8.718.492c.103-.106.1-.277-.006-.38-.053-.05-.12-.076-.188-.076-.07 0-.14.027-.193.082"/>
        <path id="1c606o2j7x" d="M7.802.124L.077 8.104c-.097.1-.089.265.018.368.107.103.272.106.37.006L8.188.498c.097-.1.089-.264-.018-.368-.055-.053-.124-.08-.193-.08-.065 0-.129.025-.176.074"/>
        <path id="t5lhs30u4A" d="M.06.215c-.039.143.046.291.19.33l11.434 3.096c.144.039.292-.046.33-.19.04-.143-.045-.29-.189-.33L.39.025C.367.02.343.015.32.015c-.119 0-.227.08-.26.2"/>
        <path id="egoiq83m8D" d="M.057.175c-.032.118.038.24.156.272l9.414 2.548c.118.032.24-.037.272-.156.032-.118-.038-.24-.156-.272L.329.02C.31.013.29.01.271.01.173.01.084.076.057.175"/>
        <path id="3j6gbhc7rG" d="M.12.059c-.1.07-.123.209-.053.309l5.615 7.974c.07.1.209.124.309.054s.124-.21.053-.31L.43.114C.387.05.318.019.248.019.204.019.16.032.121.059"/>
        <path id="vflh09x5tJ" d="M.126.084c-.1.07-.124.208-.054.308l5.615 7.975c.07.1.209.124.309.053.1-.07.124-.208.053-.309L.435.137C.39.076.323.043.253.043.21.043.164.056.126.083"/>
        <path id="u5md03x71M" d="M9.615.052L.184 2.533c-.119.031-.19.152-.158.27.03.12.152.19.27.159L9.728.48c.119-.031.19-.152.158-.27C9.86.11 9.77.044 9.672.044c-.019 0-.038.002-.057.007"/>
        <path id="5ousu9kyhP" d="M9.625.032L.193 2.513c-.118.031-.189.153-.158.271.031.118.153.19.271.158L9.738.461c.118-.031.189-.152.158-.27C9.87.09 9.78.024 9.682.024c-.02 0-.038.002-.057.007"/>
        <path id="xvjanw5ktS" d="M.218.03C.096.032-.002.133.001.256l.187 9.75c.002.123.103.22.225.218.123-.002.22-.104.218-.226L.444.248C.442.125.343.03.222.03H.218"/>
        <path id="acryppfjgV" d="M.218.02C.096.023-.002.124.001.246l.187 9.751c.002.122.103.22.225.217.123-.002.22-.103.218-.226L.444.239C.442.117.343.02.222.02H.218"/>
        <path id="9wmng0etyY" d="M.002 18.335c0 10.113 8.198 18.31 18.31 18.31 10.112 0 18.31-8.197 18.31-18.31 0-10.112-8.198-18.31-18.31-18.31C8.2.025.002 8.223.002 18.335m2.35-.196c0-8.706 7.058-15.764 15.764-15.764S33.88 9.433 33.88 18.14c0 8.707-7.058 15.765-15.764 15.765S2.352 26.846 2.352 18.139"/>
        <path id="wisd49n3zaa" d="M.024 1.64c0 .896.726 1.622 1.621 1.622.896 0 1.621-.726 1.621-1.621 0-.896-.725-1.622-1.62-1.622C.75.02.023.745.023 1.641"/>
        <path id="jte5m8jvdad" d="M8.33.118L.09 8.629c-.103.107-.1.277.006.38.107.104.278.102.381-.005L8.717.492c.103-.106.1-.277-.007-.38-.052-.05-.12-.076-.187-.076-.07 0-.14.027-.193.082"/>
        <path id="ab0l6znjzag" d="M7.8.124L.077 8.104c-.097.1-.089.265.018.368.107.103.272.106.37.006L8.187.498c.097-.1.089-.264-.018-.368-.055-.053-.125-.08-.193-.08-.065 0-.129.025-.176.074"/>
        <path id="umzswcunpaj" d="M.06.215c-.04.143.045.291.189.33l11.434 3.096c.144.039.292-.046.33-.19.04-.143-.046-.29-.19-.33L.39.025C.366.02.342.015.32.015c-.119 0-.227.08-.26.2"/>
        <path id="69qxwi11eam" d="M.056.175c-.032.118.038.24.156.272l9.414 2.548c.118.032.24-.037.272-.156.032-.118-.038-.24-.156-.272L.328.02C.308.013.29.01.27.01.172.01.083.076.056.175"/>
        <path id="xqrblps6fap" d="M.12.059c-.1.07-.124.209-.054.309l5.615 7.974c.07.1.209.124.309.054s.124-.21.053-.31L.43.114C.385.05.317.019.247.019.203.019.16.032.12.059"/>
        <path id="bj9znh5dqas" d="M.125.084C.025.154 0 .292.07.392l5.615 7.975c.07.1.208.124.309.053.1-.07.124-.208.053-.309L.433.137C.39.076.322.043.252.043c-.044 0-.089.013-.127.04"/>
        <path id="be1ak091jav" d="M9.614.052L.183 2.533c-.119.031-.19.152-.158.27.03.12.152.19.27.159L9.727.48c.118-.031.19-.152.158-.27C9.86.11 9.77.044 9.671.044c-.019 0-.038.002-.057.007"/>
        <path id="m5dqbnlosay" d="M9.624.032L.192 2.513c-.118.031-.189.153-.158.271.031.118.153.19.271.158L9.737.461c.118-.031.189-.152.158-.27-.027-.1-.116-.166-.215-.166-.018 0-.037.002-.056.007"/>
        <path id="iffp3gtfiaB" d="M.277.03C.155.032.057.133.06.256l.186 9.75c.003.123.104.22.226.218.123-.002.22-.104.218-.226L.503.248C.5.125.402.03.28.03H.277"/>
        <path id="x3fjw8yrzaE" d="M.277.02C.155.023.057.124.06.246l.186 9.751c.003.122.104.22.226.217.123-.002.22-.103.218-.226L.503.239C.5.117.402.02.28.02H.277"/>
        <path id="atnn1hi0gaH" d="M.055 6.708s.817 4.254 5.083 4.117l4.606-8.228L5.439.049.055 6.709z"/>
        <path id="ugjqwr1ypaK" d="M4.83 9.247C.424 13.751.032 16.688.032 16.688s8.225 5.19 10.868 4.015c2.644-1.175 7.741-7.456 10.575-7.32 0 0 6.903.662 9.326-.88 2.424-1.543 6.903-8.813-1.615-11.75-1.414-.488-2.91-.704-4.44-.704C17.065.05 8.505 5.491 4.83 9.247"/>
        <path id="x8vmkzdnpaM" d="M13.702.856l.441 5.728S-1.719 26.56.19 27.146c1.91.588 21.354 4.553 23.088 2.79C25.01 28.175 44.325 6.879 44.325 6.879c1.492 2.885 8.788 19.974 8.788 19.974s1.762 2.644 2.007-.44c0 0-9.4-25.703-10.868-25.703-1.47 0-28.053 3.819-28.053 3.819L15.612.052l-1.91.804zm9.62 25.63c-.924-.725-6.42-19.724-5.801-19.828 0 0 25.115-4.26 25.335-3.672.22.587.882.972 0 1.808-.866.822-18.027 21.707-19.474 21.709-.025 0-.044-.006-.06-.018zm-3.275 1.963c-3.206-.56-14.89-2.59-16.577-2.674-1.697-.085 8.886-13.562 11.74-17.156.13-.163.34-.238.543-.193.203.045.362.202.41.404l4.505 18.959c.043.178-.007.365-.132.498-.104.11-.247.17-.396.17-.03 0-.062-.002-.093-.008z"/>
        <path id="yijwy5xr4aP" d="M.124.953C-.358 2.568 1.33 3.99 3.975 4.124s3.966.28 3.966.28l.579 3.949c.02.14.1.266.22.345.12.078.266.102.404.065l2.292-.611-.558-4.028s5.214-1.482 4.039-2.804C14.231.548 9.471.002 5.53.002 2.718.002.324.28.124.952"/>
        <path id="zpkjuadb7aS" d="M.742 1.496c-.184 0-.955.22-.588 1.506.367 1.285.958 3.254.958 3.254l2.342.08-1.097-4.031s7.828-1.59 8.886 0c.97 1.458-1.261 4.072-2.714 5.174-.215.163-.292.45-.188.7.118.283.219.517.304.71.081.185.252.316.452.346.2.03.402-.044.535-.197.74-.851 1.955-2.235 2.32-2.585.54-.514 2.559-6.058-.305-6.389-.246-.028-.528-.041-.839-.041C7.492.023.91 1.496.742 1.496"/>
        <path id="9adf2vyjlaU" d="M.343 6.877c.955 1.983 2.203 12.557 3.892 13.292 1.689.734 14.687 10.134 14.76 10.207.074.074-1.248 2.13 0 2.424 1.249.293 3.525.146 3.305-.955-.22-1.102.367-1.836-.44-2.644-.808-.808-13.513-12.198-13.513-12.198S8.941.406 4.241.04C4.146.032 4.052.028 3.96.028.577.028-.587 4.947.343 6.877"/>
        <path id="17mvl3hajaW" d="M.045.588c0 .319.258.578.578.578.32 0 .578-.259.578-.578 0-.32-.259-.579-.578-.579-.32 0-.578.26-.578.579"/>
        <path id="u5ljvf6wxaZ" d="M.018.588c0 .319.26.578.579.578.32 0 .578-.259.578-.578 0-.32-.259-.579-.578-.579-.32 0-.579.26-.579.579"/>
        <path id="6r94qekfpbc" d="M.011.326C.003.488.128.705.29.713l22.826 1.346h.016c.155 0 .284-.268.293-.424.008-.163-.116-.447-.278-.455L.32.01.292.006c-.148 0-.272.167-.28.32"/>
        <path id="hb6j4gx9lbf" d="M.065.244C.023.4.113.572.27.614l22.045 6.047.015.003c.151.033.308-.075.35-.226.042-.157-.046-.336-.203-.379L.427.034C.4.024.372.019.344.019.219.019.1.116.065.244"/>
        <path id="gtjjg12bxbi" d="M.022 4.855c0 2.654 2.152 4.806 4.807 4.806 2.654 0 4.806-2.152 4.806-4.806C9.635 2.2 7.483.048 4.83.048 2.174.048.022 2.2.022 4.855"/>
        <path id="wp2itt5s7bl" d="M3.68.034c-.2.005-.385.103-.5.266L.047 4.707l1.518 1.19 2.977-4.471c.152-.228.14-.526-.029-.741l-.32-.41c-.12-.152-.304-.241-.498-.241H3.68"/>
        <path id="wf4slm6eibo" d="M.615.26L.187.75c-.12.138-.179.32-.16.503.018.183.11.35.256.461L9.1 8.446c.166.127.382.166.582.107.2-.06.359-.212.43-.41l.246-.691c.097-.274.007-.579-.224-.753L1.5.169c-.117-.09-.255-.133-.392-.133C.925.036.744.113.615.26"/>
        <path id="6nmjq6m8rbr" d="M.605 2.933C2.441 4.77 7.068 7.78 7.95 8.073c.881.294 3.745-.513 3.01-1.541-.733-1.029-4.772-2.938-4.772-2.938L4.57.804S1.716.402 1.836.059c0 0-3.066 1.038-1.23 2.874"/>
        <path id="yvmngfen8bu" d="M7.164 2.99S3.05 12 2.904 14.35C2.758 16.699.04 24.336.04 24.336s1.249 2.13 2.791.588C4.373 23.38 14.581 2.305 13.406.69c-.321-.442-.917-.633-1.617-.633-1.862 0-4.465 1.35-4.625 2.934"/>
        <path id="7rwcwwji7bw" d="M3.414 9.557c6.56 2.545 15.863 13.414 15.863 13.414l7.44-2.154S17.629 4.66 13.362 3.682C6.697 3.277 3.76 1.192 1.776.038c0 0-4.922 6.973 1.638 9.519"/>
        <path id="pgppxx6reby" d="M.007 2.289c0 1.233 1 2.233 2.233 2.233s2.233-1 2.233-2.233c0-1.234-1-2.233-2.233-2.233s-2.233 1-2.233 2.233"/>
        <path id="f4lzykbeabB" d="M.053 9.252l5.004 3.283s5.56-8.882 5.594-9.037C11.216.906 4.072.051 4.072.051L.053 9.252z"/>
        <path id="lwg327ehfbD" d="M5.92.057C4.362.156 4.015 1.241 3.98 2.07c-.018.463-.401.84-.864.83C1.254 2.86 1.013 4.27 1.01 4.994c0 .242.1.47.277.636.465.434 1.401 1.456 1.151 2.464C2.17 9.18.661 12.792.118 14.078c-.124.292-.077.628.122.875 1.21 1.505 3.006 2.943 3.947 3.651.356.269.86.222 1.156-.113 1.177-1.335 2.27-2.991 2.795-3.822.255-.404.137-.941-.27-1.191-.696-.428-1.828-.538-3.06-.64-1.448-.118-1.268-1.503-1.177-1.93.016-.078.044-.151.081-.221l2.46-4.61c.125-.236.35-.399.613-.444.724-.126 2.187-.236 2.936.716.555.705 1.341 1.395 2.237 1.602.82.19 1.828-.171 1.881-1.094.066-1.163-.24-2.344-.863-3.329-.193-.306-.422-.598-.724-.798-.207-.138-.466-.24-.718-.238-.279.003-.256.117-.42.208-.348.192-.729.175-1.025-.149-.17-.185-.355-.227-.528-.2-.39.058-.769-.176-.929-.536C8.287 1.04 7.565.05 6.127.05c-.068 0-.137.003-.207.007"/>
        <path id="60pi2kzv5bG" d="M1.166.07C.347.124-.17.972.156 1.726c1.97 4.56 4.744 7.23 10.497 9.5.758.298 1.787.17 2.132-.568C15.393 5.068 10.687.024 2.527.024c-.444 0-.898.015-1.361.046"/>
        <path id="iqr9ed03wbI" d="M0.025 3.507L4.644 0.926 4.035 0.026z"/>
        <path id="xh7b3jc5tbL" d="M0.022 6.061L1.537 0.986 0.915 0.051z"/>
        <path id="jen2wnhz9bO" d="M1.323.082C-.084 3.446.177 3.827.035 4.779l.354-.918C.696 3.153.83 2.624 1.825.054l-.502.028z"/>
        <path id="f3ztd4kb2bR" d="M8.39 8.574C6.438 5.006 3.557 2.247.045.037c2.45 3.377 5.188 6.294 8.347 8.537"/>
        <path id="jb4l1motrbT" d="M8.502 8.619C9.442 4.909 5.63 1.479.046.037 4.31 2.43 7.767 5.37 8.502 8.62"/>
        <path id="kjcrpme08bV" d="M.084 1.702c-.531 2.699 2.02 2.252 2.02 2.252s1.626-2.05.85-3.128C2.606.343 2.08.033 1.567.033.933.033.32.504.084 1.703"/>
        <linearGradient id="0zph70sqtf" x1="95.813%" x2="163.623%" y1="103.704%" y2="184.376%">
            <stop offset="0%" stop-color="#08005D"/>
            <stop offset="100%" stop-color="#1A0E90"/>
        </linearGradient>
        <linearGradient id="mis6taho0i" x1="78.9%" x2="245.109%" y1="69.45%" y2="169.495%">
            <stop offset="0%" stop-color="#E1463D"/>
            <stop offset="100%" stop-color="#E86059"/>
        </linearGradient>
        <linearGradient id="335mkuou6p" x1="65.885%" x2="-2.845%" y1="-18.646%" y2="278.367%">
            <stop offset="0%" stop-color="#08005D"/>
            <stop offset="100%" stop-color="#1A0E90"/>
        </linearGradient>
        <linearGradient id="jd1a147d3s" x1="14.993%" x2="85.006%" y1="85.701%" y2="14.301%">
            <stop offset="0%" stop-color="#08005D"/>
            <stop offset="100%" stop-color="#1A0E90"/>
        </linearGradient>
        <linearGradient id="jtx4ssu5gv" x1="47.926%" x2="52.074%" y1="47.93%" y2="52.07%">
            <stop offset="0%" stop-color="#08005D"/>
            <stop offset="100%" stop-color="#1A0E90"/>
        </linearGradient>
        <linearGradient id="jckk68wc9y" x1="47.792%" x2="52.208%" y1="47.797%" y2="52.203%">
            <stop offset="0%" stop-color="#08005D"/>
            <stop offset="100%" stop-color="#1A0E90"/>
        </linearGradient>
        <linearGradient id="1dktxa83bB" x1="50.588%" x2="49.412%" y1="49.341%" y2="50.659%">
            <stop offset="0%" stop-color="#08005D"/>
            <stop offset="100%" stop-color="#1A0E90"/>
        </linearGradient>
        <linearGradient id="pile1x0ebE" x1="50.588%" x2="49.412%" y1="49.341%" y2="50.659%">
            <stop offset="0%" stop-color="#08005D"/>
            <stop offset="100%" stop-color="#1A0E90"/>
        </linearGradient>
        <linearGradient id="he2i428upH" x1="51.55%" x2="48.45%" y1="48.483%" y2="51.516%">
            <stop offset="0%" stop-color="#08005D"/>
            <stop offset="100%" stop-color="#1A0E90"/>
        </linearGradient>
        <linearGradient id="3islxlvcrK" x1="51.55%" x2="48.45%" y1="48.484%" y2="51.516%">
            <stop offset="0%" stop-color="#08005D"/>
            <stop offset="100%" stop-color="#1A0E90"/>
        </linearGradient>
        <linearGradient id="6z4nmdwx3N" x1="50.571%" x2="49.429%" y1="50.643%" y2="49.357%">
            <stop offset="0%" stop-color="#08005D"/>
            <stop offset="100%" stop-color="#1A0E90"/>
        </linearGradient>
        <linearGradient id="mppxyxsdsQ" x1="50.571%" x2="49.429%" y1="50.643%" y2="49.357%">
            <stop offset="0%" stop-color="#08005D"/>
            <stop offset="100%" stop-color="#1A0E90"/>
        </linearGradient>
        <linearGradient id="o4w7ba4qvT" x1="50.134%" x2="49.865%" y1="49.959%" y2="50.042%">
            <stop offset="0%" stop-color="#08005D"/>
            <stop offset="100%" stop-color="#1A0E90"/>
        </linearGradient>
        <linearGradient id="flnjy6n2eW" x1="50.134%" x2="49.865%" y1="49.958%" y2="50.042%">
            <stop offset="0%" stop-color="#08005D"/>
            <stop offset="100%" stop-color="#1A0E90"/>
        </linearGradient>
        <linearGradient id="7igahi1qlab" x1="14.994%" x2="85.007%" y1="85.701%" y2="14.301%">
            <stop offset="0%" stop-color="#08005D"/>
            <stop offset="100%" stop-color="#1A0E90"/>
        </linearGradient>
        <linearGradient id="qe2evf04wae" x1="47.926%" x2="52.074%" y1="47.93%" y2="52.07%">
            <stop offset="0%" stop-color="#08005D"/>
            <stop offset="100%" stop-color="#1A0E90"/>
        </linearGradient>
        <linearGradient id="r2emtepr8ah" x1="47.792%" x2="52.208%" y1="47.796%" y2="52.203%">
            <stop offset="0%" stop-color="#08005D"/>
            <stop offset="100%" stop-color="#1A0E90"/>
        </linearGradient>
        <linearGradient id="2pa9d0jv4ak" x1="50.588%" x2="49.412%" y1="49.341%" y2="50.659%">
            <stop offset="0%" stop-color="#08005D"/>
            <stop offset="100%" stop-color="#1A0E90"/>
        </linearGradient>
        <linearGradient id="8kqun7zysan" x1="50.588%" x2="49.412%" y1="49.341%" y2="50.659%">
            <stop offset="0%" stop-color="#08005D"/>
            <stop offset="100%" stop-color="#1A0E90"/>
        </linearGradient>
        <linearGradient id="2ymefteccaq" x1="51.55%" x2="48.45%" y1="48.483%" y2="51.516%">
            <stop offset="0%" stop-color="#08005D"/>
            <stop offset="100%" stop-color="#1A0E90"/>
        </linearGradient>
        <linearGradient id="i6rsmxwhkat" x1="51.55%" x2="48.45%" y1="48.484%" y2="51.516%">
            <stop offset="0%" stop-color="#08005D"/>
            <stop offset="100%" stop-color="#1A0E90"/>
        </linearGradient>
        <linearGradient id="hxmtqx2cgaw" x1="50.571%" x2="49.429%" y1="50.643%" y2="49.357%">
            <stop offset="0%" stop-color="#08005D"/>
            <stop offset="100%" stop-color="#1A0E90"/>
        </linearGradient>
        <linearGradient id="qy3y1zq31az" x1="50.571%" x2="49.429%" y1="50.643%" y2="49.357%">
            <stop offset="0%" stop-color="#08005D"/>
            <stop offset="100%" stop-color="#1A0E90"/>
        </linearGradient>
        <linearGradient id="6tqkty4reaC" x1="50.134%" x2="49.865%" y1="49.959%" y2="50.042%">
            <stop offset="0%" stop-color="#08005D"/>
            <stop offset="100%" stop-color="#1A0E90"/>
        </linearGradient>
        <linearGradient id="jkqx5fdpjaF" x1="50.134%" x2="49.865%" y1="49.958%" y2="50.042%">
            <stop offset="0%" stop-color="#08005D"/>
            <stop offset="100%" stop-color="#1A0E90"/>
        </linearGradient>
        <linearGradient id="81shkuvftaI" x1="97.738%" x2="-98.847%" y1="2.837%" y2="211.148%">
            <stop offset="0%" stop-color="#FDBABA"/>
            <stop offset="100%" stop-color="#FF918E"/>
        </linearGradient>
        <linearGradient id="7kwxvcahraN" x1="60.691%" x2="47.576%" y1="-7.278%" y2="76.974%">
            <stop offset="0%" stop-color="#FF918E"/>
            <stop offset="100%" stop-color="#FD7062"/>
        </linearGradient>
        <linearGradient id="acqy30ifnaQ" x1="90.528%" x2="57.993%" y1="112.434%" y2="53.974%">
            <stop offset="0%" stop-color="#E1463D"/>
            <stop offset="100%" stop-color="#E86059"/>
        </linearGradient>
        <linearGradient id="8457bvhphaX" x1="-.002%" x2="100.002%" y1="50.002%" y2="50.002%">
            <stop offset="0%" stop-color="#08005D"/>
            <stop offset="100%" stop-color="#1A0E90"/>
        </linearGradient>
        <linearGradient id="cnmfhtaehba" x1="0%" x2="99.999%" y1="50.002%" y2="50.002%">
            <stop offset="0%" stop-color="#08005D"/>
            <stop offset="100%" stop-color="#1A0E90"/>
        </linearGradient>
        <linearGradient id="2royufu4vbd" x1="-76.752%" x2="18.358%" y1="45.221%" y2="48.783%">
            <stop offset="0%" stop-color="#08005D"/>
            <stop offset="100%" stop-color="#1A0E90"/>
        </linearGradient>
        <linearGradient id="7komf2e30bg" x1="-73.324%" x2="13.67%" y1="24.188%" y2="42.389%">
            <stop offset="0%" stop-color="#08005D"/>
            <stop offset="100%" stop-color="#1A0E90"/>
        </linearGradient>
        <linearGradient id="ib9u469prbj" x1="0%" x2="100%" y1="50%" y2="50%">
            <stop offset="0%" stop-color="#08005D"/>
            <stop offset="100%" stop-color="#1A0E90"/>
        </linearGradient>
        <linearGradient id="1oswuedhwbm" x1=".281%" x2="73.8%" y1="117.207%" y2="21.672%">
            <stop offset="0%" stop-color="#08005D"/>
            <stop offset="100%" stop-color="#1A0E90"/>
        </linearGradient>
        <linearGradient id="h7x42wgxcbp" x1="95.813%" x2="163.624%" y1="103.704%" y2="184.376%">
            <stop offset="0%" stop-color="#08005D"/>
            <stop offset="100%" stop-color="#1A0E90"/>
        </linearGradient>
        <linearGradient id="tu6fdpi6zbs" x1="115.167%" x2="275.859%" y1="100.924%" y2="220.207%">
            <stop offset="0%" stop-color="#E1463D"/>
            <stop offset="100%" stop-color="#E86059"/>
        </linearGradient>
        <linearGradient id="ixtjxi7iybz" x1="58.744%" x2="19.419%" y1="-19.946%" y2="294.646%">
            <stop offset="0%" stop-color="#08005D"/>
            <stop offset="100%" stop-color="#1A0E90"/>
        </linearGradient>
        <linearGradient id="sqtf40vmgbE" x1="23.557%" x2="73.589%" y1="43.83%" y2="58.639%">
            <stop offset="0%" stop-color="#08005D"/>
            <stop offset="100%" stop-color="#1A0E90"/>
        </linearGradient>
        <linearGradient id="cetijwahnbJ" x1="6.244%" x2="-612.383%" y1="79.882%" y2="441.407%">
            <stop offset="0%" stop-color="#E1463D"/>
            <stop offset="100%" stop-color="#E86059"/>
        </linearGradient>
        <linearGradient id="kqsmdkl17bM" x1="40.501%" x2="-79.343%" y1="75.206%" y2="443.866%">
            <stop offset="0%" stop-color="#E1463D"/>
            <stop offset="100%" stop-color="#E86059"/>
        </linearGradient>
        <linearGradient id="dgriq2eu2bP" x1="58.513%" x2="-170.529%" y1="28.743%" y2="497.599%">
            <stop offset="0%" stop-color="#E1463D"/>
            <stop offset="100%" stop-color="#E86059"/>
        </linearGradient>
        <linearGradient id="5j4rc7ejobW" x1="-170.286%" x2="54.298%" y1="232.888%" y2="47.199%">
            <stop offset="0%" stop-color="#FDBABA"/>
            <stop offset="100%" stop-color="#FF918E"/>
        </linearGradient>
    </defs>
    <g fill="none" fill-rule="evenodd">
        <g>
            <g>
                <g>
                    <g transform="translate(-222 -1787) translate(20 1777) translate(202 10) translate(.32 .041)">
                        <mask id="0ww9juwkib" fill="#fff">
                            <use xlink:href="#31bj5qdfva"/>
                        </mask>
                        <path fill="#ECFBFF" d="M64.111 13.349c-18.62 1.324-31.351 8.226-39.225 15.095-7.95 6.9-11.041 13.767-12.147 15.723-5.8 11.267-6.02 23.879-2.053 34.503 3.934 10.813 12.056 19.638 22.163 27.69 13.416 10.512 25.803 16.61 32.431 19.912 2.241 1.053 8.407 4.298 16.135 5.938 7.82 1.543 17.204 1.481 28.038-6.328 1.85-1.324 4.22-3.065 7.03-5.966 5.318-5.466 10.563-13.416 15.199-22.433 4.616-9.01 8.623-19.087 11.012-28.63 2.385-9.565 3.152-18.596 1.189-26.05-1.953-7.506-6.638-13.436-14.909-18.051-7.842-4.329-18.425-7.387-29.89-9.404C90.622 13.89 81.68 13 73.078 13c-3.043 0-6.045.112-8.967.349" mask="url(#0ww9juwkib)" transform="matrix(1 0 0 -1 0 146)"/>
                    </g>
                    <g>
                        <path fill="#ABE9F8" d="M127.456 54.833c3.367-5.608 4.557-11.75 3.739-17.057-.731-4.745.383-9.614 3.192-13.534.296-.413.578-.842.845-1.287 4.05-6.744 3.178-14.652-1.95-17.663-5.128-3.01-12.568.016-16.619 6.76-.828 1.379-1.45 2.806-1.872 4.23-1.346 4.546-4.314 8.483-8.436 10.89-3.684 2.152-7.062 5.437-9.587 9.641-3.766 6.27-4.808 13.209-3.366 18.902.546 2.153.696 4.397.427 6.603-.448 3.666.875 7.105 3.754 8.796 3.106 1.823 7.152 1.101 10.313-1.487 1.79-1.465 3.844-2.563 6.032-3.326 5.166-1.802 10.122-5.799 13.528-11.468" transform="translate(-222 -1787) translate(20 1777) translate(202 10) translate(6 19.101) rotate(-10 115.28 38.127)"/>
                        <path fill="#DFF8FF" d="M132.278 12.91c-2.045 4.865-4.25 9.663-6.504 14.439-.564 1.194-1.147 2.38-1.725 3.566l-.87 1.781-.883 1.774c-.594 1.18-1.171 2.368-1.779 3.542l-1.822 3.52c-1.246 2.333-2.471 4.676-3.762 6.985-.643 1.156-1.263 2.324-1.93 3.467l-1.986 3.438c-2.694 4.557-5.506 9.052-8.546 13.4l-.193-.126 2.148-3.337.538-.832.518-.846 1.031-1.694 1.034-1.69c.346-.564.67-1.14 1.007-1.708.664-1.142 1.338-2.278 1.995-3.424 2.598-4.6 5.133-9.233 7.57-13.917 1.2-2.35 2.421-4.69 3.605-7.05l.892-1.767.878-1.773c.586-1.183 1.171-2.365 1.745-3.553 1.168-2.367 2.318-4.742 3.449-7.125 1.143-2.379 2.264-4.768 3.377-7.159l.213.088z" transform="translate(-222 -1787) translate(20 1777) translate(202 10) translate(6 19.101) rotate(-10 117.278 40.821)"/>
                        <path fill="#CDF6FF" d="M128.44 86.383c4.485-5.964 6.553-12.789 6.242-18.902-.279-5.464 1.556-10.854 5.209-14.971.384-.433.754-.887 1.11-1.36 5.393-7.173 5.322-16.241-.159-20.254-5.48-4.012-14.296-1.45-19.689 5.724-1.102 1.467-1.976 3.012-2.622 4.578-2.06 4.996-5.896 9.113-10.865 11.362-4.44 2.01-8.665 5.339-12.027 9.81-5.014 6.67-7.007 14.415-6.031 21.038.37 2.505.279 5.066-.285 7.536-.936 4.104.168 8.158 3.245 10.41 3.32 2.43 8.006 2.084 11.903-.48 2.205-1.453 4.67-2.458 7.248-3.068 6.086-1.44 12.188-5.392 16.722-11.423" transform="translate(-222 -1787) translate(20 1777) translate(202 10) translate(6 19.101)"/>
                        <path fill="#ABE9F8" d="M136 39.124c-2.78 5.274-5.724 10.453-8.722 15.6-.749 1.288-1.518 2.563-2.283 3.84l-1.148 1.916-1.164 1.907c-.78 1.268-1.544 2.546-2.339 3.805l-2.384 3.777c-1.621 2.498-3.222 5.009-4.889 7.476-.831 1.234-1.639 2.485-2.496 3.703l-2.552 3.664C104.573 89.662 101 94.427 97.196 99L97 98.836l2.717-3.53.681-.882.66-.898 1.315-1.798 1.318-1.796c.44-.598.86-1.212 1.29-1.817.853-1.217 1.716-2.426 2.561-3.648 3.351-4.91 6.638-9.863 9.823-14.886 1.574-2.523 3.169-5.033 4.726-7.567l1.172-1.898 1.157-1.907c.772-1.272 1.544-2.543 2.304-3.822 1.54-2.545 3.062-5.102 4.564-7.67 1.515-2.562 3.007-5.138 4.49-7.717l.222.124z" transform="translate(-222 -1787) translate(20 1777) translate(202 10) translate(6 19.101)"/>
                        <path fill="#CDF6FF" d="M20.637 48.042c.57-1.962.874-3.967.665-6.059-.526-5.27-4.42-9.553-7.447-13.66-2.782-3.774-5.38-9.658 1.705-10.284 5.643-.5 13.134 3.88 14.865 9.466 2.048 6.612.182 15.696 5.193 21.173 7.01 7.662 10.66 5.024 13.158 19.52 1.067 6.194-1.821 10.194-5.479 12.744-5.773 4.025-13.473 4.082-19.304.14-5.152-3.483-8.828-9.116-8.99-15.363-.162-6.31 3.928-11.802 5.634-17.677" transform="translate(-222 -1787) translate(20 1777) translate(202 10) translate(6 19.101)"/>
                        <path fill="#ABE9F8" d="M33.035 96l-.023-.001c-.156-.012-.273-.15-.261-.31 2.5-32.779-2.423-51.198-6.993-60.878-4.94-10.466-10.539-13.235-10.595-13.262-.142-.068-.203-.24-.136-.383.067-.144.235-.206.378-.139.234.112 5.801 2.849 10.832 13.463 2.941 6.207 5.079 13.837 6.354 22.68 1.592 11.04 1.836 24.015.727 38.564-.012.151-.136.266-.283.266M12.205 34.212c.256-.118.547-.19.867-.208 1.77-.095 2.793 1.61 3.547 2.952.645 1.149 1.412 2.546 1.38 3.915-.035 1.48-1.36 2.907-2.714 1.64-1.539-1.44-3.858-3.658-4.243-5.847-.19-1.088.277-2.043 1.163-2.452M3.93 80.728c-1.535-4.658-.732-10.443-.725-15.647.005-2.751-.234-5.44-1.12-8.06-.88-2.606-2.626-5.288-1.921-8.153 1.42-5.773 7.38-4.272 11.244-.766 4.482 4.067 6.791 11.569 9.194 17.239 1.448 3.418 3.34 6.855 4.4 10.408 1.758 5.888 1.11 10.293-1.283 13.602-2.294 3.173-6.391 4.448-10.078 3.142-3.33-1.18-7.234-4.25-9.71-11.765" transform="translate(-222 -1787) translate(20 1777) translate(202 10) translate(6 19.101)"/>
                        <path fill="#DFF8FF" d="M19.711 99c-.159 0-.288-.127-.288-.284 0-.072-.032-7.37-1.694-17.175-1.532-9.04-4.804-22.123-11.686-33.108-.084-.133-.041-.308.094-.39.136-.083.314-.042.397.092C13.468 59.201 16.76 72.365 18.3 81.458 19.97 91.307 20 98.642 20 98.715c0 .157-.129.285-.288.285z" transform="translate(-222 -1787) translate(20 1777) translate(202 10) translate(6 19.101)"/>
                    </g>
                    <g transform="translate(-222 -1787) translate(20 1777) translate(202 10) translate(77.6 55.061)">
                        <mask id="jaxlc49jrd" fill="#fff">
                            <use xlink:href="#58z0o3qujc"/>
                        </mask>
                        <path fill="#ED9D66" d="M.482 7.116c1.09 1.911 3.074 12.373 4.81 12.988 1.736.615 15.358 9.085 15.436 9.153.079.068-1.096 2.211.17 2.417 1.265.206 3.526-.1 3.23-1.183-.297-1.083.238-1.857-.625-2.606-.862-.75-14.33-11.226-14.33-11.226S8.608.061 3.893.023h-.03C.28.023-.605 5.21.483 7.116" mask="url(#jaxlc49jrd)"/>
                    </g>
                    <g transform="translate(-222 -1787) translate(20 1777) translate(202 10) translate(68.36 105.281)">
                        <mask id="w1kd2zesyg" fill="#fff">
                            <use xlink:href="#k0izfwwmae"/>
                        </mask>
                        <path fill="url(#0zph70sqtf)" d="M.61.28L.182.77c-.12.138-.179.32-.16.504.018.183.11.35.256.46l8.817 6.732c.166.127.382.167.581.107.2-.06.36-.212.43-.41l.247-.691c.097-.273.006-.579-.224-.753L1.494.19C1.377.099 1.24.056 1.101.056.92.056.74.133.61.28" mask="url(#w1kd2zesyg)"/>
                    </g>
                    <g transform="translate(-222 -1787) translate(20 1777) translate(202 10) translate(70.82 104.981)">
                        <mask id="e3r9ktk89j" fill="#fff">
                            <use xlink:href="#3vt4ynsirh"/>
                        </mask>
                        <path fill="url(#mis6taho0i)" d="M.668 2.796c1.818 1.6 6.302 4.127 7.14 4.348.837.22 3.454-.7 2.71-1.614C9.772 4.617 5.9 3.08 5.9 3.08L4.232.579s-2.68-.204-2.59-.53c0 0-2.79 1.148-.974 2.747" mask="url(#e3r9ktk89j)"/>
                    </g>
                    <g transform="translate(-222 -1787) translate(20 1777) translate(202 10) translate(72.38 84.821)">
                        <mask id="dx46ok3dll" fill="#fff">
                            <use xlink:href="#wqe7bsnxzk"/>
                        </mask>
                        <path fill="#ED9D66" d="M5.026 2.703s-3.046 7.567-3.05 9.49C1.975 14.117.05 20.49.05 20.49s1.177 1.668 2.415.327C3.702 19.477 11.328 1.74 10.24.487 9.977.184 9.541.053 9.03.053c-1.604 0-3.947 1.294-4.004 2.65" mask="url(#dx46ok3dll)"/>
                    </g>
                    <g transform="translate(-222 -1787) translate(20 1777) translate(202 10) translate(54.86 69.881)">
                        <mask id="hl7x8qdnun" fill="#fff">
                            <use xlink:href="#52gr91d25m"/>
                        </mask>
                        <path fill="#44057D" d="M4.363 9.07c6.926 1.246 18.133 10.137 18.133 10.137l6.893-3.536S17.379 1.549 13.004 1.403C6.385 2.28 3.105.793.936.04c0 0-3.499 7.785 3.427 9.03" mask="url(#hl7x8qdnun)"/>
                    </g>
                    <path fill="#FFF" d="M101.475 124.064c-8.186 0-14.822-6.636-14.822-14.821 0-8.186 6.636-14.822 14.822-14.822 8.185 0 14.821 6.636 14.821 14.822 0 8.185-6.636 14.821-14.821 14.821m0-32.245c-9.623 0-17.424 7.8-17.424 17.424 0 9.623 7.8 17.424 17.424 17.424 9.623 0 17.424-7.801 17.424-17.424s-7.801-17.424-17.424-17.424" transform="translate(-222 -1787) translate(20 1777) translate(202 10)"/>
                    <g transform="translate(-222 -1787) translate(20 1777) translate(202 10) translate(83.3 91.481)">
                        <mask id="fsd8hmitmq" fill="#fff">
                            <use xlink:href="#35qbb0b3oo"/>
                        </mask>
                        <path fill="url(#335mkuou6p)" d="M.003 18.335c0 10.113 8.198 18.31 18.31 18.31 10.112 0 18.31-8.197 18.31-18.31 0-10.112-8.198-18.31-18.31-18.31C8.201.025.003 8.223.003 18.335m2.35-.196c0-8.706 7.058-15.764 15.764-15.764S33.881 9.433 33.881 18.14c0 8.707-7.058 15.765-15.764 15.765S2.353 26.846 2.353 18.139" mask="url(#fsd8hmitmq)"/>
                    </g>
                    <g fill="#91B3FA">
                        <path d="M21.042 11.496c-.121 0-.231-.08-.264-.202-.163-.613-.371-1.221-.62-1.808-.058-.139.007-.298.146-.358.139-.057.299.006.357.146.258.61.475 1.242.645 1.88.038.145-.048.294-.194.333-.023.007-.047.01-.07.01M18.66 6.624c-.083 0-.165-.038-.219-.109C15.624 2.78 11.085.55 6.298.55 4.257.549 2.282.963.43 1.779c-.138.06-.299-.002-.36-.14-.06-.137.002-.299.14-.36C2.132.433 4.181.003 6.3.003c4.956 0 9.658 2.312 12.578 6.184.09.12.067.291-.053.382-.05.037-.107.055-.164.055" transform="translate(-222 -1787) translate(20 1777) translate(202 10) translate(95.9 92.201)"/>
                    </g>
                    <g transform="translate(-222 -1787) translate(20 1777) translate(202 10) translate(100.94 109.361)">
                        <mask id="15ptq794yt" fill="#fff">
                            <use xlink:href="#8h9madakbr"/>
                        </mask>
                        <path fill="url(#jd1a147d3s)" d="M.025 1.64c0 .896.726 1.622 1.621 1.622.896 0 1.622-.726 1.622-1.621 0-.896-.726-1.622-1.622-1.622C.751.02.026.745.026 1.641" mask="url(#15ptq794yt)"/>
                    </g>
                    <g transform="translate(-222 -1787) translate(20 1777) translate(202 10) translate(103.82 100.301)">
                        <mask id="dmqjecmgzw" fill="#fff">
                            <use xlink:href="#p6gbttp76u"/>
                        </mask>
                        <path fill="url(#jtx4ssu5gv)" d="M8.33.118L.092 8.629c-.103.107-.1.277.006.38.107.104.278.102.381-.005L8.718.492c.103-.106.1-.277-.006-.38-.053-.05-.12-.076-.188-.076-.07 0-.14.027-.193.082" mask="url(#dmqjecmgzw)"/>
                    </g>
                    <g transform="translate(-222 -1787) translate(20 1777) translate(202 10) translate(92.66 112.001)">
                        <mask id="iir3m47qwz" fill="#fff">
                            <use xlink:href="#1c606o2j7x"/>
                        </mask>
                        <path fill="url(#jckk68wc9y)" d="M7.802.124L.077 8.104c-.097.1-.089.265.018.368.107.103.272.106.37.006L8.188.498c.097-.1.089-.264-.018-.368-.055-.053-.124-.08-.193-.08-.065 0-.129.025-.176.074" mask="url(#iir3m47qwz)"/>
                    </g>
                    <g transform="translate(-222 -1787) translate(20 1777) translate(202 10) translate(87.5 107.141)">
                        <mask id="9nvsm1q2bC" fill="#fff">
                            <use xlink:href="#t5lhs30u4A"/>
                        </mask>
                        <path fill="url(#1dktxa83bB)" d="M.06.215c-.039.143.046.291.19.33l11.434 3.096c.144.039.292-.046.33-.19.04-.143-.045-.29-.189-.33L.39.025C.367.02.343.015.32.015c-.119 0-.227.08-.26.2" mask="url(#9nvsm1q2bC)"/>
                    </g>
                    <g transform="translate(-222 -1787) translate(20 1777) translate(202 10) translate(104.54 111.881)">
                        <mask id="q6glaybfhF" fill="#fff">
                            <use xlink:href="#egoiq83m8D"/>
                        </mask>
                        <path fill="url(#pile1x0ebE)" d="M.057.175c-.032.118.038.24.156.272l9.414 2.548c.118.032.24-.037.272-.156.032-.118-.038-.24-.156-.272L.329.02C.31.013.29.01.271.01.173.01.084.076.057.175" mask="url(#q6glaybfhF)"/>
                    </g>
                    <g transform="translate(-222 -1787) translate(20 1777) translate(202 10) translate(95.3 99.761)">
                        <mask id="8ur97i2ouI" fill="#fff">
                            <use xlink:href="#3j6gbhc7rG"/>
                        </mask>
                        <path fill="url(#he2i428upH)" d="M.12.059c-.1.07-.123.209-.053.309l5.615 7.974c.07.1.209.124.309.054s.124-.21.053-.31L.43.114C.387.05.318.019.248.019.204.019.16.032.121.059" mask="url(#8ur97i2ouI)"/>
                    </g>
                    <g transform="translate(-222 -1787) translate(20 1777) translate(202 10) translate(103.52 112.661)">
                        <mask id="c4fh1z709L" fill="#fff">
                            <use xlink:href="#vflh09x5tJ"/>
                        </mask>
                        <path fill="url(#3islxlvcrK)" d="M.126.084c-.1.07-.124.208-.054.308l5.615 7.975c.07.1.209.124.309.053.1-.07.124-.208.053-.309L.435.137C.39.076.323.043.253.043.21.043.164.056.126.083" mask="url(#c4fh1z709L)"/>
                    </g>
                    <g transform="translate(-222 -1787) translate(20 1777) translate(202 10) translate(88.7 111.881)">
                        <mask id="w7y6bzn15O" fill="#fff">
                            <use xlink:href="#u5md03x71M"/>
                        </mask>
                        <path fill="url(#6z4nmdwx3N)" d="M9.615.052L.184 2.533c-.119.031-.19.152-.158.27.03.12.152.19.27.159L9.728.48c.119-.031.19-.152.158-.27C9.86.11 9.77.044 9.672.044c-.019 0-.038.002-.057.007" mask="url(#w7y6bzn15O)"/>
                    </g>
                    <g transform="translate(-222 -1787) translate(20 1777) translate(202 10) translate(105.14 107.201)">
                        <mask id="hfqs6hnh3R" fill="#fff">
                            <use xlink:href="#5ousu9kyhP"/>
                        </mask>
                        <path fill="url(#mppxyxsdsQ)" d="M9.625.032L.193 2.513c-.118.031-.189.153-.158.271.031.118.153.19.271.158L9.738.461c.118-.031.189-.152.158-.27C9.87.09 9.78.024 9.682.024c-.02 0-.038.002-.057.007" mask="url(#hfqs6hnh3R)"/>
                    </g>
                    <g transform="translate(-222 -1787) translate(20 1777) translate(202 10) translate(102.74 112.961)">
                        <mask id="ylk7lvu3vU" fill="#fff">
                            <use xlink:href="#xvjanw5ktS"/>
                        </mask>
                        <path fill="url(#o4w7ba4qvT)" d="M.218.03C.096.032-.002.133.001.256l.187 9.75c.002.123.103.22.225.218.123-.002.22-.104.218-.226L.444.248C.442.125.343.03.222.03H.218" mask="url(#ylk7lvu3vU)"/>
                    </g>
                    <g transform="translate(-222 -1787) translate(20 1777) translate(202 10) translate(102.74 96.521)">
                        <mask id="l98kwpfenX" fill="#fff">
                            <use xlink:href="#acryppfjgV"/>
                        </mask>
                        <path fill="url(#flnjy6n2eW)" d="M.218.02C.096.023-.002.124.001.246l.187 9.751c.002.122.103.22.225.217.123-.002.22-.103.218-.226L.444.239C.442.117.343.02.222.02H.218" mask="url(#l98kwpfenX)"/>
                    </g>
                    <path fill="#FFF" d="M48.152 124.52c-8.232 0-14.904-6.672-14.904-14.904 0-8.231 6.672-14.904 14.904-14.904 8.231 0 14.904 6.673 14.904 14.904 0 8.232-6.673 14.904-14.904 14.904m0-32.425c-9.677 0-17.522 7.844-17.522 17.521s7.845 17.521 17.522 17.521c9.676 0 17.521-7.844 17.521-17.52 0-9.678-7.845-17.522-17.521-17.522" transform="translate(-222 -1787) translate(20 1777) translate(202 10)"/>
                    <g transform="translate(-222 -1787) translate(20 1777) translate(202 10) translate(29.84 91.481)">
                        <mask id="3dwp5jp4dZ" fill="#fff">
                            <use xlink:href="#9wmng0etyY"/>
                        </mask>
                        <path fill="url(#335mkuou6p)" d="M.002 18.335c0 10.113 8.198 18.31 18.31 18.31 10.112 0 18.31-8.197 18.31-18.31 0-10.112-8.198-18.31-18.31-18.31C8.2.025.002 8.223.002 18.335m2.35-.196c0-8.706 7.058-15.764 15.764-15.764S33.88 9.433 33.88 18.14c0 8.707-7.058 15.765-15.764 15.765S2.352 26.846 2.352 18.139" mask="url(#3dwp5jp4dZ)"/>
                    </g>
                    <g fill="#91B3FA">
                        <path d="M22.658 12.377c-.13 0-.249-.087-.284-.218-.175-.66-.4-1.314-.667-1.946-.063-.15.007-.321.156-.385.15-.062.322.006.385.157.278.656.511 1.336.694 2.023.042.157-.052.317-.208.36-.026.006-.051.009-.076.009M20.094 7.132c-.09 0-.177-.04-.235-.117C16.826 2.994 11.939.593 6.788.593 4.59.593 2.465 1.039.47 1.918c-.15.064-.323-.003-.388-.151s.002-.322.15-.388C2.304.468 4.51.005 6.789.005c5.335 0 10.397 2.489 13.54 6.657.097.13.072.313-.058.411-.053.04-.115.059-.176.059" transform="translate(-222 -1787) translate(20 1777) translate(202 10) translate(41.54 91.781)"/>
                    </g>
                    <g transform="translate(-222 -1787) translate(20 1777) translate(202 10) translate(47.48 109.361)">
                        <mask id="mb5afxhfsac" fill="#fff">
                            <use xlink:href="#wisd49n3zaa"/>
                        </mask>
                        <path fill="url(#7igahi1qlab)" d="M.024 1.64c0 .896.726 1.622 1.621 1.622.896 0 1.621-.726 1.621-1.621 0-.896-.725-1.622-1.62-1.622C.75.02.023.745.023 1.641" mask="url(#mb5afxhfsac)"/>
                    </g>
                    <g transform="translate(-222 -1787) translate(20 1777) translate(202 10) translate(50.36 100.301)">
                        <mask id="9l14tyxm4af" fill="#fff">
                            <use xlink:href="#jte5m8jvdad"/>
                        </mask>
                        <path fill="url(#qe2evf04wae)" d="M8.33.118L.09 8.629c-.103.107-.1.277.006.38.107.104.278.102.381-.005L8.717.492c.103-.106.1-.277-.007-.38-.052-.05-.12-.076-.187-.076-.07 0-.14.027-.193.082" mask="url(#9l14tyxm4af)"/>
                    </g>
                    <g transform="translate(-222 -1787) translate(20 1777) translate(202 10) translate(39.2 112.001)">
                        <mask id="0hs63nkpbai" fill="#fff">
                            <use xlink:href="#ab0l6znjzag"/>
                        </mask>
                        <path fill="url(#r2emtepr8ah)" d="M7.8.124L.077 8.104c-.097.1-.089.265.018.368.107.103.272.106.37.006L8.187.498c.097-.1.089-.264-.018-.368-.055-.053-.125-.08-.193-.08-.065 0-.129.025-.176.074" mask="url(#0hs63nkpbai)"/>
                    </g>
                    <g transform="translate(-222 -1787) translate(20 1777) translate(202 10) translate(34.04 107.141)">
                        <mask id="nde8kri2val" fill="#fff">
                            <use xlink:href="#umzswcunpaj"/>
                        </mask>
                        <path fill="url(#2pa9d0jv4ak)" d="M.06.215c-.04.143.045.291.189.33l11.434 3.096c.144.039.292-.046.33-.19.04-.143-.046-.29-.19-.33L.39.025C.366.02.342.015.32.015c-.119 0-.227.08-.26.2" mask="url(#nde8kri2val)"/>
                    </g>
                    <g transform="translate(-222 -1787) translate(20 1777) translate(202 10) translate(51.08 111.881)">
                        <mask id="2u5din75gao" fill="#fff">
                            <use xlink:href="#69qxwi11eam"/>
                        </mask>
                        <path fill="url(#8kqun7zysan)" d="M.056.175c-.032.118.038.24.156.272l9.414 2.548c.118.032.24-.037.272-.156.032-.118-.038-.24-.156-.272L.328.02C.308.013.29.01.27.01.172.01.083.076.056.175" mask="url(#2u5din75gao)"/>
                    </g>
                    <g transform="translate(-222 -1787) translate(20 1777) translate(202 10) translate(41.84 99.761)">
                        <mask id="dttx0gvh4ar" fill="#fff">
                            <use xlink:href="#xqrblps6fap"/>
                        </mask>
                        <path fill="url(#2ymefteccaq)" d="M.12.059c-.1.07-.124.209-.054.309l5.615 7.974c.07.1.209.124.309.054s.124-.21.053-.31L.43.114C.385.05.317.019.247.019.203.019.16.032.12.059" mask="url(#dttx0gvh4ar)"/>
                    </g>
                    <g transform="translate(-222 -1787) translate(20 1777) translate(202 10) translate(50.06 112.661)">
                        <mask id="5q8vh199kau" fill="#fff">
                            <use xlink:href="#bj9znh5dqas"/>
                        </mask>
                        <path fill="url(#i6rsmxwhkat)" d="M.125.084C.025.154 0 .292.07.392l5.615 7.975c.07.1.208.124.309.053.1-.07.124-.208.053-.309L.433.137C.39.076.322.043.252.043c-.044 0-.089.013-.127.04" mask="url(#5q8vh199kau)"/>
                    </g>
                    <g transform="translate(-222 -1787) translate(20 1777) translate(202 10) translate(35.24 111.881)">
                        <mask id="7kv52plsrax" fill="#fff">
                            <use xlink:href="#be1ak091jav"/>
                        </mask>
                        <path fill="url(#hxmtqx2cgaw)" d="M9.614.052L.183 2.533c-.119.031-.19.152-.158.27.03.12.152.19.27.159L9.727.48c.118-.031.19-.152.158-.27C9.86.11 9.77.044 9.671.044c-.019 0-.038.002-.057.007" mask="url(#7kv52plsrax)"/>
                    </g>
                    <g transform="translate(-222 -1787) translate(20 1777) translate(202 10) translate(51.68 107.201)">
                        <mask id="l7zpoudh4aA" fill="#fff">
                            <use xlink:href="#m5dqbnlosay"/>
                        </mask>
                        <path fill="url(#qy3y1zq31az)" d="M9.624.032L.192 2.513c-.118.031-.189.153-.158.271.031.118.153.19.271.158L9.737.461c.118-.031.189-.152.158-.27-.027-.1-.116-.166-.215-.166-.018 0-.037.002-.056.007" mask="url(#l7zpoudh4aA)"/>
                    </g>
                    <g transform="translate(-222 -1787) translate(20 1777) translate(202 10) translate(49.22 112.961)">
                        <mask id="dokjrp63waD" fill="#fff">
                            <use xlink:href="#iffp3gtfiaB"/>
                        </mask>
                        <path fill="url(#6tqkty4reaC)" d="M.277.03C.155.032.057.133.06.256l.186 9.75c.003.123.104.22.226.218.123-.002.22-.104.218-.226L.503.248C.5.125.402.03.28.03H.277" mask="url(#dokjrp63waD)"/>
                    </g>
                    <g transform="translate(-222 -1787) translate(20 1777) translate(202 10) translate(49.22 96.521)">
                        <mask id="mgbgxwzgwaG" fill="#fff">
                            <use xlink:href="#x3fjw8yrzaE"/>
                        </mask>
                        <path fill="url(#jkqx5fdpjaF)" d="M.277.02C.155.023.057.124.06.246l.186 9.751c.003.122.104.22.226.217.123-.002.22-.103.218-.226L.503.239C.5.117.402.02.28.02H.277" mask="url(#mgbgxwzgwaG)"/>
                    </g>
                    <g transform="translate(-222 -1787) translate(20 1777) translate(202 10) translate(83.36 49.121)">
                        <mask id="n7gxzsm2naJ" fill="#fff">
                            <use xlink:href="#atnn1hi0gaH"/>
                        </mask>
                        <path fill="url(#81shkuvftaI)" d="M.055 6.708s.817 4.254 5.083 4.117l4.606-8.228L5.439.049.055 6.709z" mask="url(#n7gxzsm2naJ)"/>
                    </g>
                    <g transform="translate(-222 -1787) translate(20 1777) translate(202 10) translate(54.68 53.081)">
                        <mask id="foblwfl8taL" fill="#fff">
                            <use xlink:href="#ugjqwr1ypaK"/>
                        </mask>
                        <path fill="#F99746" d="M4.83 9.247C.424 13.751.032 16.688.032 16.688s8.225 5.19 10.868 4.015c2.644-1.175 7.741-7.456 10.575-7.32 0 0 6.903.662 9.326-.88 2.424-1.543 6.903-8.813-1.615-11.75-1.414-.488-2.91-.704-4.44-.704C17.065.05 8.505 5.491 4.83 9.247" mask="url(#foblwfl8taL)"/>
                    </g>
                    <g transform="translate(-222 -1787) translate(20 1777) translate(202 10) translate(48.5 84.041)">
                        <mask id="mbsl6my71aO" fill="#fff">
                            <use xlink:href="#x8vmkzdnpaM"/>
                        </mask>
                        <path fill="url(#7kwxvcahraN)" d="M13.702.856l.441 5.728S-1.719 26.56.19 27.146c1.91.588 21.354 4.553 23.088 2.79C25.01 28.175 44.325 6.879 44.325 6.879c1.492 2.885 8.788 19.974 8.788 19.974s1.762 2.644 2.007-.44c0 0-9.4-25.703-10.868-25.703-1.47 0-28.053 3.819-28.053 3.819L15.612.052l-1.91.804zm9.62 25.63c-.924-.725-6.42-19.724-5.801-19.828 0 0 25.115-4.26 25.335-3.672.22.587.882.972 0 1.808-.866.822-18.027 21.707-19.474 21.709-.025 0-.044-.006-.06-.018zm-3.275 1.963c-3.206-.56-14.89-2.59-16.577-2.674-1.697-.085 8.886-13.562 11.74-17.156.13-.163.34-.238.543-.193.203.045.362.202.41.404l4.505 18.959c.043.178-.007.365-.132.498-.104.11-.247.17-.396.17-.03 0-.062-.002-.093-.008z" mask="url(#mbsl6my71aO)"/>
                    </g>
                    <g transform="translate(-222 -1787) translate(20 1777) translate(202 10) translate(52.94 76.601)">
                        <mask id="ulsbzqgwkaR" fill="#fff">
                            <use xlink:href="#yijwy5xr4aP"/>
                        </mask>
                        <path fill="url(#acqy30ifnaQ)" d="M.124.953C-.358 2.568 1.33 3.99 3.975 4.124s3.966.28 3.966.28l.579 3.949c.02.14.1.266.22.345.12.078.266.102.404.065l2.292-.611-.558-4.028s5.214-1.482 4.039-2.804C14.231.548 9.471.002 5.53.002 2.718.002.324.28.124.952" mask="url(#ulsbzqgwkaR)"/>
                    </g>
                    <g transform="translate(-222 -1787) translate(20 1777) translate(202 10) translate(89.66 78.701)">
                        <mask id="5qwtgi2s5aT" fill="#fff">
                            <use xlink:href="#zpkjuadb7aS"/>
                        </mask>
                        <path d="M.742 1.496c-.184 0-.955.22-.588 1.506.367 1.285.958 3.254.958 3.254l2.342.08-1.097-4.031s7.828-1.59 8.886 0c.97 1.458-1.261 4.072-2.714 5.174-.215.163-.292.45-.188.7.118.283.219.517.304.71.081.185.252.316.452.346.2.03.402-.044.535-.197.74-.851 1.955-2.235 2.32-2.585.54-.514 2.559-6.058-.305-6.389-.246-.028-.528-.041-.839-.041C7.492.023.91 1.496.742 1.496" mask="url(#5qwtgi2s5aT)"/>
                    </g>
                    <g transform="translate(-222 -1787) translate(20 1777) translate(202 10) translate(81.32 54.521)">
                        <mask id="a9ldo9bmkaV" fill="#fff">
                            <use xlink:href="#9adf2vyjlaU"/>
                        </mask>
                        <path fill="#FFB27D" d="M.343 6.877c.955 1.983 2.203 12.557 3.892 13.292 1.689.734 14.687 10.134 14.76 10.207.074.074-1.248 2.13 0 2.424 1.249.293 3.525.146 3.305-.955-.22-1.102.367-1.836-.44-2.644-.808-.808-13.513-12.198-13.513-12.198S8.941.406 4.241.04C4.146.032 4.052.028 3.96.028.577.028-.587 4.947.343 6.877" mask="url(#a9ldo9bmkaV)"/>
                    </g>
                    <g transform="translate(-222 -1787) translate(20 1777) translate(202 10) translate(101.96 110.141)">
                        <mask id="y8ganv4b9aY" fill="#fff">
                            <use xlink:href="#17mvl3hajaW"/>
                        </mask>
                        <path fill="url(#8457bvhphaX)" d="M.045.588c0 .319.258.578.578.578.32 0 .578-.259.578-.578 0-.32-.259-.579-.578-.579-.32 0-.578.26-.578.579" mask="url(#y8ganv4b9aY)"/>
                    </g>
                    <g transform="translate(-222 -1787) translate(20 1777) translate(202 10) translate(49.7 110.141)">
                        <mask id="q4mm6o96lbb" fill="#fff">
                            <use xlink:href="#u5ljvf6wxaZ"/>
                        </mask>
                        <path fill="url(#cnmfhtaehba)" d="M.018.588c0 .319.26.578.579.578.32 0 .578-.259.578-.578 0-.32-.259-.579-.578-.579-.32 0-.579.26-.579.579" mask="url(#q4mm6o96lbb)"/>
                    </g>
                    <g transform="translate(-222 -1787) translate(20 1777) translate(202 10) translate(49.34 108.521)">
                        <mask id="eym5ytze7be" fill="#fff">
                            <use xlink:href="#6r94qekfpbc"/>
                        </mask>
                        <path fill="url(#2royufu4vbd)" d="M.011.326C.003.488.128.705.29.713l22.826 1.346h.016c.155 0 .284-.268.293-.424.008-.163-.116-.447-.278-.455L.32.01.292.006c-.148 0-.272.167-.28.32" mask="url(#eym5ytze7be)"/>
                    </g>
                    <g transform="translate(-222 -1787) translate(20 1777) translate(202 10) translate(49.1 111.341)">
                        <mask id="rsp0nihi3bh" fill="#fff">
                            <use xlink:href="#hb6j4gx9lbf"/>
                        </mask>
                        <path fill="url(#7komf2e30bg)" d="M.065.244C.023.4.113.572.27.614l22.045 6.047.015.003c.151.033.308-.075.35-.226.042-.157-.046-.336-.203-.379L.427.034C.4.024.372.019.344.019.219.019.1.116.065.244" mask="url(#rsp0nihi3bh)"/>
                    </g>
                    <g transform="translate(-222 -1787) translate(20 1777) translate(202 10) translate(66.44 109.181)">
                        <mask id="710qlmi5fbk" fill="#fff">
                            <use xlink:href="#gtjjg12bxbi"/>
                        </mask>
                        <path fill="url(#ib9u469prbj)" d="M.022 4.855c0 2.654 2.152 4.806 4.807 4.806 2.654 0 4.806-2.152 4.806-4.806C9.635 2.2 7.483.048 4.83.048 2.174.048.022 2.2.022 4.855" mask="url(#710qlmi5fbk)"/>
                    </g>
                    <g transform="translate(-222 -1787) translate(20 1777) translate(202 10) translate(67.1 113.381)">
                        <mask id="8n2ood6jzbn" fill="#fff">
                            <use xlink:href="#wp2itt5s7bl"/>
                        </mask>
                        <path fill="url(#1oswuedhwbm)" d="M3.68.034c-.2.005-.385.103-.5.266L.047 4.707l1.518 1.19 2.977-4.471c.152-.228.14-.526-.029-.741l-.32-.41c-.12-.152-.304-.241-.498-.241H3.68" mask="url(#8n2ood6jzbn)"/>
                    </g>
                    <g transform="translate(-222 -1787) translate(20 1777) translate(202 10) translate(62.48 114.701)">
                        <mask id="47zt9zl0ybq" fill="#fff">
                            <use xlink:href="#wf4slm6eibo"/>
                        </mask>
                        <path fill="url(#h7x42wgxcbp)" d="M.615.26L.187.75c-.12.138-.179.32-.16.503.018.183.11.35.256.461L9.1 8.446c.166.127.382.166.582.107.2-.06.359-.212.43-.41l.246-.691c.097-.274.007-.579-.224-.753L1.5.169c-.117-.09-.255-.133-.392-.133C.925.036.744.113.615.26" mask="url(#47zt9zl0ybq)"/>
                    </g>
                    <g transform="translate(-222 -1787) translate(20 1777) translate(202 10) translate(63.8 113.321)">
                        <mask id="h7vqxxgkwbt" fill="#fff">
                            <use xlink:href="#6nmjq6m8rbr"/>
                        </mask>
                        <path fill="url(#tu6fdpi6zbs)" d="M.605 2.933C2.441 4.77 7.068 7.78 7.95 8.073c.881.294 3.745-.513 3.01-1.541-.733-1.029-4.772-2.938-4.772-2.938L4.57.804S1.716.402 1.836.059c0 0-3.066 1.038-1.23 2.874" mask="url(#h7vqxxgkwbt)"/>
                    </g>
                    <g transform="translate(-222 -1787) translate(20 1777) translate(202 10) translate(65.54 89.201)">
                        <mask id="6bp2keg3fbv" fill="#fff">
                            <use xlink:href="#yvmngfen8bu"/>
                        </mask>
                        <path fill="#FFB27D" d="M7.164 2.99S3.05 12 2.904 14.35C2.758 16.699.04 24.336.04 24.336s1.249 2.13 2.791.588C4.373 23.38 14.581 2.305 13.406.69c-.321-.442-.917-.633-1.617-.633-1.862 0-4.465 1.35-4.625 2.934" mask="url(#6bp2keg3fbv)"/>
                    </g>
                    <g transform="translate(-222 -1787) translate(20 1777) translate(202 10) translate(53.06 69.221)">
                        <mask id="9lxcxbq7ybx" fill="#fff">
                            <use xlink:href="#7rwcwwji7bw"/>
                        </mask>
                        <path fill="#6301BB" d="M3.414 9.557c6.56 2.545 15.863 13.414 15.863 13.414l7.44-2.154S17.629 4.66 13.362 3.682C6.697 3.277 3.76 1.192 1.776.038c0 0-4.922 6.973 1.638 9.519" mask="url(#9lxcxbq7ybx)"/>
                    </g>
                    <g transform="translate(-222 -1787) translate(20 1777) translate(202 10) translate(47.12 108.101)">
                        <mask id="ijj738rtkbA" fill="#fff">
                            <use xlink:href="#pgppxx6reby"/>
                        </mask>
                        <path fill="url(#ixtjxi7iybz)" d="M.007 2.289c0 1.233 1 2.233 2.233 2.233s2.233-1 2.233-2.233c0-1.234-1-2.233-2.233-2.233s-2.233 1-2.233 2.233" mask="url(#ijj738rtkbA)"/>
                    </g>
                    <g transform="translate(-222 -1787) translate(20 1777) translate(202 10) translate(88.94 44.081)">
                        <mask id="55bmuofksbC" fill="#fff">
                            <use xlink:href="#f4lzykbeabB"/>
                        </mask>
                        <path fill="#FFB27D" d="M.053 9.252l5.004 3.283s5.56-8.882 5.594-9.037C11.216.906 4.072.051 4.072.051L.053 9.252z" mask="url(#55bmuofksbC)"/>
                    </g>
                    <g transform="translate(-222 -1787) translate(20 1777) translate(202 10) translate(87.26 40.661)">
                        <mask id="e98rv1ur7bF" fill="#fff">
                            <use xlink:href="#lwg327ehfbD"/>
                        </mask>
                        <path fill="url(#sqtf40vmgbE)" d="M5.92.057C4.362.156 4.015 1.241 3.98 2.07c-.018.463-.401.84-.864.83C1.254 2.86 1.013 4.27 1.01 4.994c0 .242.1.47.277.636.465.434 1.401 1.456 1.151 2.464C2.17 9.18.661 12.792.118 14.078c-.124.292-.077.628.122.875 1.21 1.505 3.006 2.943 3.947 3.651.356.269.86.222 1.156-.113 1.177-1.335 2.27-2.991 2.795-3.822.255-.404.137-.941-.27-1.191-.696-.428-1.828-.538-3.06-.64-1.448-.118-1.268-1.503-1.177-1.93.016-.078.044-.151.081-.221l2.46-4.61c.125-.236.35-.399.613-.444.724-.126 2.187-.236 2.936.716.555.705 1.341 1.395 2.237 1.602.82.19 1.828-.171 1.881-1.094.066-1.163-.24-2.344-.863-3.329-.193-.306-.422-.598-.724-.798-.207-.138-.466-.24-.718-.238-.279.003-.256.117-.42.208-.348.192-.729.175-1.025-.149-.17-.185-.355-.227-.528-.2-.39.058-.769-.176-.929-.536C8.287 1.04 7.565.05 6.127.05c-.068 0-.137.003-.207.007" mask="url(#e98rv1ur7bF)"/>
                    </g>
                    <g transform="translate(-222 -1787) translate(20 1777) translate(202 10) translate(88.1 39.881)">
                        <mask id="r51x3jpj0bH" fill="#fff">
                            <use xlink:href="#60pi2kzv5bG"/>
                        </mask>
                        <path fill="#F86302" d="M1.166.07C.347.124-.17.972.156 1.726c1.97 4.56 4.744 7.23 10.497 9.5.758.298 1.787.17 2.132-.568C15.393 5.068 10.687.024 2.527.024c-.444 0-.898.015-1.361.046" mask="url(#r51x3jpj0bH)"/>
                    </g>
                    <g transform="translate(-222 -1787) translate(20 1777) translate(202 10) translate(88.46 47.141)">
                        <mask id="oipvzhhn4bK" fill="#fff">
                            <use xlink:href="#iqr9ed03wbI"/>
                        </mask>
                        <path fill="url(#cetijwahnbJ)" d="M0.025 3.507L4.644 0.926 4.035 0.026z" mask="url(#oipvzhhn4bK)"/>
                    </g>
                    <g transform="translate(-222 -1787) translate(20 1777) translate(202 10) translate(88.64 44.081)">
                        <mask id="g7qqvvbuobN" fill="#fff">
                            <use xlink:href="#xh7b3jc5tbL"/>
                        </mask>
                        <path fill="url(#kqsmdkl17bM)" d="M0.022 6.061L1.537 0.986 0.915 0.051z" mask="url(#g7qqvvbuobN)"/>
                    </g>
                    <g transform="translate(-222 -1787) translate(20 1777) translate(202 10) translate(87.32 50.021)">
                        <mask id="r5qttbb48bQ" fill="#fff">
                            <use xlink:href="#jen2wnhz9bO"/>
                        </mask>
                        <path fill="url(#dgriq2eu2bP)" d="M1.323.082C-.084 3.446.177 3.827.035 4.779l.354-.918C.696 3.153.83 2.624 1.825.054l-.502.028z" mask="url(#r5qttbb48bQ)"/>
                    </g>
                    <g transform="translate(-222 -1787) translate(20 1777) translate(202 10) translate(90.26 41.501)">
                        <mask id="5n9t143xbbS" fill="#fff">
                            <use xlink:href="#f3ztd4kb2bR"/>
                        </mask>
                        <path fill="#6301BB" d="M8.39 8.574C6.438 5.006 3.557 2.247.045.037c2.45 3.377 5.188 6.294 8.347 8.537" mask="url(#5n9t143xbbS)"/>
                    </g>
                    <g transform="translate(-222 -1787) translate(20 1777) translate(202 10) translate(91.76 40.961)">
                        <mask id="z7zrxm2ljbU" fill="#fff">
                            <use xlink:href="#jb4l1motrbT"/>
                        </mask>
                        <path fill="#6301BB" d="M8.502 8.619C9.442 4.909 5.63 1.479.046.037 4.31 2.43 7.767 5.37 8.502 8.62" mask="url(#z7zrxm2ljbU)"/>
                    </g>
                    <g transform="translate(-222 -1787) translate(20 1777) translate(202 10) translate(87.14 46.121)">
                        <mask id="e04xa1euybX" fill="#fff">
                            <use xlink:href="#kjcrpme08bV"/>
                        </mask>
                        <path fill="url(#5j4rc7ejobW)" d="M.084 1.702c-.531 2.699 2.02 2.252 2.02 2.252s1.626-2.05.85-3.128C2.606.343 2.08.033 1.567.033.933.033.32.504.084 1.703" mask="url(#e04xa1euybX)"/>
                    </g>
                </g>
            </g>
        </g>
    </g>
</svg>
