<svg xmlns="http://www.w3.org/2000/svg" width="22" height="22" viewBox="0 0 22 22">
    <g fill="none" fill-rule="evenodd">
        <g>
            <g>
                <g>
                    <g>
                        <path d="M0 0L22 0 22 22 0 22z" transform="translate(-342 -365) translate(30 211) translate(0 140) translate(312 14)"/>
                        <path fill="#F86302" fill-rule="nonzero" d="M16.392 17.689C14.78 18.712 12.909 19.253 11 19.25c-4.943 0-9.055-3.557-9.917-8.25.394-2.135 1.468-4.086 3.061-5.56L1.276 2.573l1.297-1.297 18.15 18.15-1.298 1.296-3.034-3.034zM5.44 6.738C4.195 7.87 3.327 9.358 2.954 11c.58 2.54 2.326 4.656 4.709 5.71 2.383 1.054 5.123.92 7.392-.358l-1.859-1.86c-1.63 1.027-3.753.79-5.115-.573-1.362-1.362-1.6-3.485-.573-5.115L5.44 6.737zm6.398 6.396l-2.972-2.972c-.333.849-.132 1.814.513 2.459.644.644 1.61.845 2.458.512v.001zm7.235 2.075l-1.312-1.31c.613-.874 1.05-1.858 1.285-2.899-.504-2.205-1.89-4.107-3.835-5.261s-4.278-1.46-6.455-.846L7.309 3.447C8.454 2.997 9.7 2.75 11 2.75c4.943 0 9.055 3.557 9.917 8.25-.28 1.527-.912 2.968-1.844 4.21zm-8.327-8.327c1.18-.073 2.335.364 3.171 1.2.837.837 1.274 1.992 1.2 3.172l-4.372-4.372h.001z" transform="translate(-342 -365) translate(30 211) translate(0 140) translate(312 14)"/>
                    </g>
                </g>
            </g>
        </g>
    </g>
</svg>
