<svg width="22" height="22" viewBox="0 0 22 22" xmlns="http://www.w3.org/2000/svg">
    <g fill="none" fill-rule="evenodd">
        <path d="M0 0h22v22H0z"/>
        <path d="M11 4c4.485 0 8.217 3.233 9 7.5-.782 4.267-4.515 7.5-9 7.5s-8.217-3.233-9-7.5C2.782 7.233 6.515 4 11 4zm0 13.333a7.494 7.494 0 0 0 7.301-5.833A7.494 7.494 0 0 0 11 5.674 7.494 7.494 0 0 0 3.699 11.5 7.494 7.494 0 0 0 11 17.333zm0-2.083a3.747 3.747 0 0 1-3.743-3.75A3.747 3.747 0 0 1 11 7.75a3.747 3.747 0 0 1 3.743 3.75A3.747 3.747 0 0 1 11 15.25zm0-1.667c1.149 0 2.08-.932 2.08-2.083 0-1.15-.931-2.083-2.08-2.083s-2.08.932-2.08 2.083c0 1.15.931 2.083 2.08 2.083z" fill="#AAAEC2" fill-rule="nonzero"/>
    </g>
</svg>
