<svg xmlns="http://www.w3.org/2000/svg" width="15" height="24" viewBox="0 0 15 24">
    <g fill="none" fill-rule="evenodd">
        <g fill="#4FC3F7" fill-rule="nonzero">
            <g>
                <path d="M91.667 15.27v3.555h-2.5c-.46 0-.834.381-.834.853 0 .471.373.853.834.853h2.5v2.616c0 .471.372.853.833.853.46 0 .833-.382.833-.853V20.53h2.5c.46 0 .834-.382.834-.853 0-.472-.373-.853-.834-.853h-2.5v-3.552c.567-.075 1.12-.193 1.646-.382-.479-.408-.913-.867-1.302-1.364-.38.08-.774.122-1.177.122-3.216 0-5.833-2.679-5.833-5.971 0-3.293 2.617-5.972 5.833-5.972 3.324 0 5.833 2.902 5.833 5.972 0 .988-.258 1.907-.675 2.729.364.443.81.807 1.32 1.07.632-1.125 1.022-2.41 1.022-3.8C100 3.722 96.821 0 92.5 0 88.364 0 85 3.444 85 7.678c0 3.941 2.927 7.16 6.667 7.591z" transform="translate(-235 -665) translate(150 665)"/>
            </g>
        </g>
    </g>
</svg>
