<svg xmlns="http://www.w3.org/2000/svg" width="41" height="44" viewBox="0 0 41 44">
    <g fill="none" fill-rule="evenodd">
        <g fill-rule="nonzero">
            <g transform="translate(-310 -172) translate(310 172)">
                <path fill="#ABE9F8" d="M30.107 41.28H8.027c-2.381 0-4.32-1.937-4.32-4.32V20.64c0-2.383 1.939-4.32 4.32-4.32h22.08c2.38 0 4.32 1.937 4.32 4.32v16.32c0 2.383-1.94 4.32-4.32 4.32z"/>
                <circle cx="22.114" cy="29.101" r="1.682" fill="#2C269A"/>
                <path fill="#2C269A" d="M27.75 39.698H6.807c-1.855 0-3.364-1.51-3.364-3.364V22.54c0-1.855 1.51-3.364 3.364-3.364H31.03c.383 0 .687.034.929.103.893.256 1.824-.26 2.08-1.154.256-.893-.26-1.824-1.154-2.08-.547-.157-1.154-.233-1.855-.233h-2.022V9.88C29.008 4.432 24.48 0 18.915 0S8.823 4.432 8.823 9.88v5.932H6.807C3.097 15.812.08 18.83.08 22.54v13.794c0 3.71 3.018 6.728 6.728 6.728H27.75c.929 0 1.682-.753 1.682-1.682 0-.93-.753-1.682-1.682-1.682zM12.187 9.88c0-3.593 3.018-6.516 6.728-6.516s6.729 2.923 6.729 6.516v5.932H12.187V9.88z"/>
                <circle cx="15.807" cy="29.101" r="1.682" fill="#2C269A"/>
                <path fill="#F86302" d="M40.459 27.857c-.037-3.263-2.703-5.905-5.974-5.905-3.293 0-5.973 2.68-5.973 5.973 0 .93.753 1.682 1.682 1.682.929 0 1.682-.753 1.682-1.682 0-1.439 1.17-2.61 2.61-2.61 1.438 0 2.609 1.171 2.609 2.61v.046c-.017 1.03-.636 1.952-1.586 2.358-1.644.702-2.706 2.323-2.706 4.13v1.454c0 .93.753 1.682 1.682 1.682.93 0 1.683-.753 1.683-1.682v-1.455c0-.457.26-.863.662-1.035 2.206-.942 3.63-3.1 3.63-5.498l-.001-.068z"/>
                <circle cx="34.478" cy="41.38" r="1.682" fill="#F86302"/>
                <circle cx="9.499" cy="29.101" r="1.682" fill="#2C269A"/>
            </g>
        </g>
    </g>
</svg>
