<svg xmlns="http://www.w3.org/2000/svg" width="42" height="42" viewBox="0 0 42 42">
    <g fill="none" fill-rule="evenodd">
        <g>
            <g>
                <g>
                    <path d="M0 0H41.472V41.472H0z" transform="translate(-149 -971) translate(0 889) translate(149 82)"/>
                    <path fill="#CCD8F0" fill-rule="nonzero" d="M14.5 0C6.492 0 0 6.492 0 14.5S6.492 29 14.5 29 29 22.508 29 14.5C28.99 6.496 22.504.01 14.5 0zm0 27.023c-6.916 0-12.523-5.607-12.523-12.523 0-6.916 5.607-12.523 12.523-12.523 6.916 0 12.523 5.607 12.523 12.523 0 6.916-5.607 12.523-12.523 12.523zm6.59-13.182h-5.93V6.59c0-.546-.444-.989-.99-.989s-.988.443-.988.989v9.227h7.909c.546 0 .989-.442.989-.988s-.443-.99-.99-.99z" transform="translate(-149 -971) translate(0 889) translate(149 82) translate(6 7)"/>
                </g>
            </g>
        </g>
    </g>
</svg>
