<svg xmlns="http://www.w3.org/2000/svg" width="41" height="42" viewBox="0 0 41 42">
    <g fill="none" fill-rule="evenodd">
        <g fill="#FF1010" fill-rule="nonzero" stroke="#FF1010" stroke-width=".5">
            <g>
                <path d="M55.884 43.999l16.206-16.71c.737-.765.724-1.985-.028-2.734-.361-.36-.85-.56-1.358-.555-.508.005-.993.214-1.347.58L53.18 41.265l-16.847-16.71c-.361-.359-.85-.558-1.358-.553-.508.005-.993.213-1.347.58-.738.764-.726 1.984.026 2.735l16.822 16.683-16.822 16.683c-.752.75-.764 1.97-.026 2.735.354.367.839.576 1.347.58.508.006.997-.194 1.358-.554l16.847-16.71 16.177 16.684c.358.373.852.583 1.368.583.502.002.985-.199 1.34-.557.752-.75.764-1.97.027-2.736L55.884 44z" transform="translate(-186.000000, -419.000000) translate(154.000000, 396.000000)"/>
            </g>
        </g>
    </g>
</svg>
