<svg xmlns="http://www.w3.org/2000/svg" width="55" height="85" viewBox="0 0 55 85">
    <g fill="none" fill-rule="evenodd">
        <g>
            <g>
                <g>
                    <path fill="#82E2F9" fill-rule="nonzero" d="M0 0l13.035 32.615C5.225 37.615 0 46.51 0 56.667 0 72.287 12.335 85 27.5 85S55 72.288 55 56.667c0-10.153-5.225-19.05-13.035-24.052L55 0h-6.606L36.44 29.901c-2.036-.73-4.15-1.21-6.295-1.426L41.516 0H34.91L23.445 28.68c-1.662.25-3.3.66-4.889 1.221L6.606 0H0zm13.481 0l7.764 19.437 3.306-8.27L20.091 0h-6.61zM27.5 34.63c11.791 0 21.389 9.885 21.389 22.037S39.29 78.704 27.5 78.704c-11.791 0-21.389-9.885-21.389-22.037S15.71 34.63 27.5 34.63z" transform="translate(-314.000000, -133.000000) translate(20.000000, 133.000000) translate(294.000000, 0.000000)"/>
                    <path fill="#FFBD00" d="M28.098 41.905L23.734 51.749 13.152 52.914 21.073 60.068 18.843 70.626 28.098 65.261 37.353 70.634 35.126 60.076 43.043 52.91 32.462 51.746 28.098 41.901z" transform="translate(-314.000000, -133.000000) translate(20.000000, 133.000000) translate(294.000000, 0.000000)"/>
                </g>
            </g>
        </g>
    </g>
</svg>
