<svg xmlns="http://www.w3.org/2000/svg" width="27" height="28" viewBox="0 0 27 28">
    <g fill="none" fill-rule="evenodd">
        <g fill="#29B6F6" fill-rule="nonzero">
            <g>
                <path d="M10.387 0C6.383 0 3.116 3.35 3.116 7.458c0 2.567 1.278 4.847 3.214 6.193C2.625 15.281 0 19.053 0 23.44h2.077c0-4.72 3.708-8.523 8.31-8.523 2.228 0 4.22.936 5.712 2.397l-4.901 5.028-.065.332-.714 3.763L10.095 28l1.526-.332 3.666-.733.325-.066 10.484-10.755c1.205-1.236 1.205-3.292 0-4.528-1.209-1.23-3.155-1.245-4.382-.033l-4.121 4.229c-.916-.9-1.983-1.622-3.15-2.13 2.007-1.39 3.211-3.71 3.214-6.194C17.657 3.35 14.391 0 10.387 0zm0 2.13c2.88 0 5.193 2.373 5.193 5.328 0 2.954-2.313 5.327-5.193 5.327-2.88 0-5.194-2.373-5.194-5.327 0-2.955 2.313-5.327 5.194-5.327zm13.502 10.655c.264 0 .54.087.747.3.198.195.31.466.31.748 0 .283-.112.553-.31.75l-10.063 10.32-1.85.4.39-1.897 10.063-10.322c.206-.212.45-.3.713-.3z" transform="translate(-367.000000, -79.000000) translate(367.000000, 79.000000)"/>
            </g>
        </g>
    </g>
</svg>
