<svg width="30" height="30" viewBox="0 0 30 30" xmlns="http://www.w3.org/2000/svg">
    <g fill="none" fill-rule="evenodd">
        <path d="M0 0h30v30H0z"/>
        <g fill="#29B6F6" fill-rule="nonzero">
            <path d="M20.043 11.864a.9.9 0 0 1 1.181-.08l.092.08 2.56 2.56a.9.9 0 0 1 .08 1.18l-.08.092-2.56 2.56a.9.9 0 0 1-1.353-1.18l.08-.092 1.924-1.924-1.924-1.924a.9.9 0 0 1-.08-1.18l.08-.092z"/>
            <path d="M23.17 14.16a.9.9 0 0 1 .113 1.793l-.113.007H13a.9.9 0 0 1-.113-1.793L13 14.16h10.17z"/>
            <path d="M15 6.1a.9.9 0 0 1 0 1.8c-4.144 0-7.1 2.808-7.1 7.1s2.956 7.1 7.1 7.1a.9.9 0 1 1 0 1.8c-5.118 0-8.9-3.593-8.9-8.9S9.882 6.1 15 6.1z"/>
        </g>
    </g>
</svg>
