<svg xmlns="http://www.w3.org/2000/svg" width="20" height="20" viewBox="0 0 20 20">
    <g fill="none" fill-rule="evenodd">
        <g fill="#4FC3F7" fill-rule="nonzero">
            <g>
                <path d="M86.171 2H81.2c-.458 0-.829.373-.829.833 0 .46.37.834.829.834h2.972l-5.083 5C77.812 7.64 76.216 7 74.458 7c-.868 0-1.689.179-2.464.454.475.398.907.846 1.294 1.332.378-.078.77-.12 1.17-.12 3.199 0 5.802 2.618 5.802 5.834 0 3.216-2.603 5.833-5.801 5.833-3.283 0-5.802-2.804-5.802-5.833 0-.965.257-1.863.672-2.666-.362-.433-.805-.788-1.313-1.045C67.388 11.888 67 13.144 67 14.5c0 3.903 3.246 7.5 7.459 7.5 4.112 0 7.458-3.364 7.458-7.5 0-1.767-.636-3.372-1.657-4.655l5.083-5v2.988c0 .46.37.834.828.834.458 0 .829-.373.829-.834v-5c0-.456-.372-.833-.829-.833z" transform="translate(-97 -667) translate(30 665)"/>
            </g>
        </g>
    </g>
</svg>
