<svg xmlns="http://www.w3.org/2000/svg" xmlns:xlink="http://www.w3.org/1999/xlink" width="125" height="125" viewBox="0 0 125 125">
    <defs>
        <path id="h3mazv7f5a" d="M0.015 0L124.2 0 124.2 124.2 0.015 124.2z"/>
    </defs>
    <g fill="none" fill-rule="evenodd">
        <g>
            <g>
                <g>
                    <g transform="translate(-233 -1622) translate(20 1607) translate(213 15)"/>
                    <path fill="#A3ECFF" d="M87.695 114.148c0-1.16-11.148-2.1-24.9-2.1-13.752 0-24.9.94-24.9 2.1 0 1.16 11.148 2.1 24.9 2.1 13.752 0 24.9-.94 24.9-2.1" transform="translate(-233 -1622) translate(20 1607) translate(213 15)"/>
                    <path fill="#73D6CD" d="M73.488 67.15l-.48-.125c.118-.471 3.552-8.31 9.7-15.634 5.716-6.807 15.112-14.675 27.42-13.504l-.048.495c-23.514-2.24-36.499 28.454-36.592 28.768" transform="translate(-233 -1622) translate(20 1607) translate(213 15)"/>
                    <path fill="#73D6CD" d="M108.267 38.026s3.411-3.08 6.823 1.003c-4.986 1.832-6.823-1.003-6.823-1.003M104.589 38.204s-1.153-3.622 2.604-5.232c.656 3.956-2.604 5.232-2.604 5.232M102.766 38.493s-.48 3.142 3.584 4.062c.048-3.84-3.584-4.062-3.584-4.062M98.633 39.667s-1.605-3.53 2.12-5.775c1.073 4.125-2.12 5.775-2.12 5.775M95.81 40.897s.805 3.933 6.016 3.499c-1.742-4.75-6.016-3.499-6.016-3.499M91.979 43.156s-2.564-2.585.153-6.308c2.334 3.154-.153 6.308-.153 6.308M88.31 46s1.697 4.029 7.076 2.842C92.475 44.002 88.31 46 88.31 46M86.058 48.101s-3.63-1.482-1.176-6.542c3.374 3.066 1.176 6.542 1.176 6.542M44.19 66.736l-.461-.186.23.093-.232-.089c.11-.309 7.648-32.771-12.692-44.783l.253-.428C41.933 27.63 44.909 39.52 45.53 48.386c.67 9.538-1.16 17.898-1.341 18.35" transform="translate(-233 -1622) translate(20 1607) translate(213 15)"/>
                    <path fill="#73D6CD" d="M32.712 22.55s-.95-4.498-6.11-3.2c2.957 4.413 6.11 3.2 6.11 3.2M35.583 24.855s3.061-2.253.968-5.763c-2.856 2.815-.968 5.763-.968 5.763M36.887 26.16s-1.459 2.825-5.287 1.18c2.219-3.135 5.287-1.18 5.287-1.18M39.54 29.54s3.375-1.913 1.68-5.918c-3.293 2.706-1.68 5.918-1.68 5.918M41.101 32.194s-2.963 2.709-6.923-.706c4.201-2.819 6.923.706 6.923.706M42.873 36.273s3.593-.583 3.584-5.192c-3.742 1.18-3.584 5.192-3.584 5.192M43.452 38.049s-2.995 1.811-5.921-1.49c4.164-1.765 5.921 1.49 5.921 1.49" transform="translate(-233 -1622) translate(20 1607) translate(213 15)"/>
                    <path fill="#CDF6FF" d="M59.72 49.183s6.233-18.739 18.89-26.602c12.658-7.864 17.584 5.412 10.837 13.992-12.027 15.293-3.788 26.655-18.702 31.764" transform="translate(-233 -1622) translate(20 1607) translate(213 15)"/>
                    <path fill="#87E0F4" d="M85.396 37.72c-.017 0-.035-.002-.052-.006l-8.752-1.85-3.368-7.912c-.054-.126.005-.272.131-.326.127-.054.272.005.326.131l3.267 7.675 8.499 1.796c.134.029.22.16.192.295-.025.117-.128.197-.243.197" transform="translate(-233 -1622) translate(20 1607) translate(213 15)"/>
                    <path fill="#87E0F4" d="M72.34 47.281c-.024 0-.047-.003-.07-.01-.132-.038-.208-.176-.17-.308 5.572-19.065 14.19-23.39 14.554-23.565.123-.06.271-.008.331.116.06.123.007.272-.116.331-.087.042-8.79 4.434-14.291 23.258-.032.108-.131.178-.239.178" transform="translate(-233 -1622) translate(20 1607) translate(213 15)"/>
                    <path fill="#CDF6FF" d="M64.335 87.426s4.387-26.567 20.671-34.388c16.284-7.82 20.914 6.354 12.25 14.793C88.59 76.27 85.56 96.44 85.56 96.44" transform="translate(-233 -1622) translate(20 1607) translate(213 15)"/>
                    <path fill="#87E0F4" d="M76.354 89.661c-.014 0-.029-.001-.044-.004-.135-.024-.225-.153-.201-.288 2.501-14.173 7.294-22.83 10.873-27.598 3.894-5.184 7.152-6.979 7.29-7.053.12-.065.27-.02.336.1.065.121.02.272-.1.337-.033.018-3.32 1.834-7.151 6.946-3.54 4.722-8.278 13.3-10.759 27.355-.021.12-.126.205-.244.205" transform="translate(-233 -1622) translate(20 1607) translate(213 15)"/>
                    <path fill="#CDF6FF" d="M43.894 96.988s-3.939-25.43-22.562-37.367c-13.08-8.384-14.837-21.172-2.173-24.165 17.322-4.094 44.63 16.746 40.163 51.84" transform="translate(-233 -1622) translate(20 1607) translate(213 15)"/>
                    <path fill="#87E0F4" d="M52.203 82.991h-.008c-.137-.005-.245-.12-.24-.257.252-7.417-1.23-14.175-4.405-20.086-2.54-4.729-6.163-8.932-10.77-12.492-7.851-6.066-15.933-8.182-16.014-8.202-.133-.035-.213-.17-.179-.303.034-.133.17-.214.302-.179.082.021 8.263 2.163 16.195 8.291 4.662 3.603 8.331 7.86 10.904 12.65 3.216 5.99 4.718 12.832 4.463 20.338-.004.135-.114.24-.248.24" transform="translate(-233 -1622) translate(20 1607) translate(213 15)"/>
                    <path fill="#87E0F4" d="M19.106 49.863c-.091 0-.179-.05-.222-.138-.061-.122-.012-.272.111-.333l9.422-4.692-2.054-7.16c-.037-.132.039-.27.17-.308.132-.038.27.039.308.17l2.167 7.558-9.791 4.877c-.036.018-.074.026-.11.026M25.516 56.878c-.083 0-.164-.042-.211-.118-.072-.117-.036-.27.081-.342l11.24-6.923-.823-9.472c-.012-.136.09-.257.226-.269.138-.012.257.09.269.226l.85 9.777-11.501 7.084c-.041.025-.086.037-.13.037M34.178 64.65c-.082 0-.162-.041-.21-.115-.073-.116-.04-.27.076-.343l10.243-6.518-.64-11.538c-.009-.137.096-.254.233-.262.14-.007.254.097.262.234l.658 11.83L34.31 64.61c-.041.026-.087.039-.133.039M79.887 30.342l.231-7.067c.005-.137.11-.244.257-.24.137.005.244.12.24.257l-.213 6.516 7.29-.516c.14-.008.256.094.265.23.01.137-.093.256-.23.266l-7.84.554M97.222 60.923c-.017 0-.035-.002-.053-.006l-7.84-1.71.696-6.09c.016-.137.139-.234.275-.219.136.016.234.139.218.275l-.645 5.644 7.402 1.615c.134.03.219.161.19.296-.026.116-.128.195-.243.195M94.39 67.334c-.01 0-.02 0-.03-.002l-10.041-1.223-1.622-10.05c-.022-.135.07-.263.206-.285.135-.022.263.07.285.206l1.562 9.681 9.67 1.178c.135.017.233.14.216.277-.015.126-.123.218-.246.218M80.04 75.42l-3.875-4.547c-.09-.104-.077-.26.027-.35.105-.09.262-.077.35.028l3.707 4.348 10.61-1.079c.134-.013.258.086.272.222.013.137-.086.259-.222.273L80.04 75.42M77.806 83.965l-3.603-6.99c-.064-.121-.016-.271.106-.334.123-.063.272-.015.335.107l3.438 6.668 8.64-1.414c.136-.022.262.07.285.205.022.136-.07.264-.206.286l-8.995 1.472M45.139 78.47c-.096 0-.188-.056-.229-.15-.053-.126.005-.272.131-.326l9.65-4.116c.126-.054.272.005.325.13.054.127-.004.273-.13.327l-9.65 4.116c-.031.014-.064.02-.097.02" transform="translate(-233 -1622) translate(20 1607) translate(213 15)"/>
                    <path fill="#F99746" d="M102.798 98.206c-.295 2.446-1.805 5.068-3.816 6.341-2.28 1.445-15.412 3.519-36.966-1.318l-.005-.003c-9.931 3.922-24.794 2.4-32.063.934-7.266-1.465-6.42-8.011-5.255-10.585 1.162-2.574 12.015-4.172 21.692-5.54.9-3.196 3.86-6.372 3.86-6.372s16.933-.41 23.614.276c0 0 2.235 2.054 3.92 6.98 0 0 20.98 3.028 23.402 4.768 1.392 1.002 1.836 2.713 1.617 4.519" transform="translate(-233 -1622) translate(20 1607) translate(213 15)"/>
                    <path fill="#FFB27D" d="M73.859 81.94c-11.155 4.429-23.614-.277-23.614-.277l1.802-7.75 10.645-.312 8.716-.252 2.45 8.59" transform="translate(-233 -1622) translate(20 1607) translate(213 15)"/>
                    <path fill="#ED9D66" d="M70.749 81.084c-7.443 3.756-16.116.116-19.927-1.898l1.225-5.274 10.645-.31c2.525 1.54 5.29 3.896 8.057 7.482" transform="translate(-233 -1622) translate(20 1607) translate(213 15)"/>
                    <path fill="#172649" d="M61.796 18.833c-7.15-.084-12.67 5.646-12.286 13.913.383 8.268-8.44 9.19-11.582 16.012-3.7 8.033-.035 15.287 7.938 15.957 1.367 6.363 13.856 5.259 15.145-1.168 6.61 12.232 31.547 11.926 26.206-7.61-3.206-11.726-12.072-13.954-12.059-23.28.014-9.327-5.923-13.737-13.362-13.824" transform="translate(-233 -1622) translate(20 1607) translate(213 15)"/>
                    <path fill="#F86302" d="M55.537 25.276s7.047-6.258 13.832.775c-3.227-8.245-12.091-6.228-13.832-.775" transform="translate(-233 -1622) translate(20 1607) translate(213 15)"/>
                    <path fill="#0E1830" d="M70.66 34.895c-.524 1.636.458 3.381 1.55 4.85 3.17 4.265 7.88 7.823 10.242 12.376 1.57 3.024 1.715 7.489-.153 11.535-1.17 2.533-3.843 4.246-6.404 5.829 3.055-2.276 4.994-5.618 5.304-9.138.31-3.521-1.013-7.182-3.618-10.012-1.141-1.24-2.507-2.315-3.752-3.48-1.7-1.59-3.18-3.354-4.396-5.237-1.366-2.117-2.419-4.549-1.868-6.865l3.095.142M57.14 33.947c-.029 2.013-.998 3.914-2.267 5.477-1.269 1.563-2.836 2.852-4.308 4.226-2.227 2.077-4.286 4.414-5.53 7.194-1.244 2.78-1.597 6.063-.422 8.872-.489-4.566 1.35-9.321 4.784-12.37 2.456-2.18 5.617-3.496 7.896-5.86 2.272-2.357 3.491-5.692 3.276-8.958l-3.43 1.42" transform="translate(-233 -1622) translate(20 1607) translate(213 15)"/>
                    <path fill="#0E1830" d="M67.91 33.54c-1.066 3.746.08 7.772 1.733 11.297 1.654 3.526 3.827 6.83 4.992 10.547 1.164 3.716 1.144 8.11-1.312 11.133 1.06-2.322.785-5.074-.134-7.456-.92-2.382-2.429-4.48-3.864-6.592-1.792-2.638-3.507-5.368-4.555-8.379-1.047-3.011-1.388-6.355-.409-9.39l3.548-1.16" transform="translate(-233 -1622) translate(20 1607) translate(213 15)"/>
                    <path fill="#FFB27D" d="M55.064 33.749l-.304 3.486c-1.122 1.012-2.04-1.282-1.937-2.653.025-.365.126-.665.31-.821.885-.744 1.93-.012 1.93-.012M69.854 37.412l-.222-3.492s1.06-.708 1.93.057c.178.158.27.45.291.806.082 1.371-.895 3.672-2 2.629" transform="translate(-233 -1622) translate(20 1607) translate(213 15)"/>
                    <path fill="#E4717B" d="M54.788 36.914l-.028.32c-1.122 1.013-2.04-1.281-1.937-2.652.676-.012 1.776.293 1.965 2.332M69.854 37.412l-.112-1.763c.774-1.268 1.592-1.15 2.111-.866.082 1.371-.895 3.672-2 2.629" transform="translate(-233 -1622) translate(20 1607) translate(213 15)"/>
                    <path fill="#FFB27D" d="M54.522 33.453s-.284 4.406.748 6.197c1.032 1.791 5.201 4.33 6.959 4.352 2.553.032 6.277-3.288 7.26-4.707.981-1.418.627-7.032.627-7.032s-7.284-.475-11.187-4.985c-1.65 4.835-4.407 6.175-4.407 6.175" transform="translate(-233 -1622) translate(20 1607) translate(213 15)"/>
                    <path fill="#E4717B" d="M58.038 36.81c-.009.728-.606 1.311-1.333 1.303-.728-.009-1.311-.606-1.303-1.334.009-.727.606-1.31 1.334-1.302.727.009 1.31.606 1.302 1.333M69.394 36.944c-.008.727-.605 1.31-1.333 1.302-.728-.009-1.311-.605-1.303-1.333.009-.728.606-1.311 1.334-1.303.727.009 1.31.606 1.302 1.334" transform="translate(-233 -1622) translate(20 1607) translate(213 15)"/>
                    <path fill="#201731" d="M57.412 33.731c.15.005.288.027.426.047.137.02.274.03.407.056.268.027.53.057.785.052.256 0 .508-.02.752-.09.24-.072.482-.176.709-.358-.077.288-.311.522-.578.67-.27.15-.581.214-.88.212-.153.006-.3-.02-.446-.041-.144-.033-.286-.068-.423-.118-.135-.055-.268-.114-.395-.182-.123-.078-.245-.155-.357-.248M67.162 33.845c-.114.09-.238.165-.363.24-.128.065-.262.12-.398.173-.139.046-.281.078-.426.108-.147.018-.294.04-.446.03-.3-.005-.61-.075-.876-.232-.263-.155-.491-.394-.561-.684.222.187.46.297.7.375.242.076.494.1.75.107.255.012.517-.013.786-.034.132-.021.27-.03.408-.045.138-.018.277-.036.426-.038" transform="translate(-233 -1622) translate(20 1607) translate(213 15)"/>
                    <path fill="#E36A5B" d="M62.454 37.471c-.047 0-.09-.032-.103-.08-.016-.057.018-.117.076-.133.27-.073 1.003-.333 1.166-.648.082-.156-.005-.255-.293-.52-.203-.186-.456-.418-.661-.766-.485-.821.27-2.983.303-3.074.02-.057.081-.087.138-.067.057.02.086.082.066.14-.007.02-.754 2.156-.32 2.89.189.32.428.54.62.717.27.249.504.464.34.78-.237.455-1.194.728-1.302.757-.01.003-.02.004-.03.004" transform="translate(-233 -1622) translate(20 1607) translate(213 15)"/>
                    <path fill="#172649" d="M57.128 32.649s.829-2.153 2.99-2.02c-.386-.834-2.811-1.114-2.99 2.02M67.45 32.77s-.778-2.172-2.943-2.09c.407-.824 2.837-1.047 2.943 2.09" transform="translate(-233 -1622) translate(20 1607) translate(213 15)"/>
                    <path fill="#FFFFFE" d="M61.362 38.411s1.034.224 2.072.13c-.352.782-1.764.503-2.072-.13" transform="translate(-233 -1622) translate(20 1607) translate(213 15)"/>
                    <path fill="#0E1830" d="M52.87 26.028c-.967 1.039-1.682 2.361-2.27 3.751-.294.697-.559 1.415-.813 2.143-.261.73-.482 1.461-.784 2.23-.603 1.508-1.439 2.915-2.47 4.157-1.038 1.246-2.246 2.273-3.378 3.32-.568.525-1.118 1.057-1.625 1.622-.504.566-.96 1.17-1.366 1.812-.807 1.285-1.41 2.706-1.794 4.188-.777 2.966-.724 6.153.065 9.145l-.208.06c-.91-2.997-1.09-6.241-.401-9.337.34-1.546.913-3.05 1.711-4.435.402-.69.864-1.35 1.374-1.966.511-.614 1.062-1.186 1.619-1.74 1.112-1.106 2.25-2.153 3.164-3.34.916-1.19 1.641-2.522 2.144-3.927.242-.69.45-1.458.685-2.205.233-.75.48-1.504.766-2.253.572-1.491 1.293-2.991 2.409-4.283l1.173 1.058" transform="translate(-233 -1622) translate(20 1607) translate(213 15)"/>
                    <path fill="#FFB27D" d="M68.86 82.444c-11.291 1.559-25.808-13.638-25.808-13.638s1.076-7.22 2.685-14.098c.657-2.815 2.173-4.394 4.064-5.496 2.63-1.534 5.994-2.152 8.806-3.91l.228-2.32.196-2.012 6.225-.736.36 3.307.204 1.847c.807 2.777 10.968 1.673 12.176 9.458.132.996.294 2.315.465 3.742.527 4.412 1.137 9.838 1.137 9.838s.553 12.46-10.738 14.018" transform="translate(-233 -1622) translate(20 1607) translate(213 15)"/>
                    <path fill="#E98875" d="M72.374 60.042L71.624 54.937 71.341 60.674 72.374 60.042" transform="translate(-233 -1622) translate(20 1607) translate(213 15)"/>
                    <path fill="#ED9D66" d="M65.345 42.927c-.504.735-1.997 2.758-3.136 2.726-1.339-.036-2.584-1.922-3.085-2.786 1.187.666 2.36 1.126 3.104 1.135.944.011 2.05-.435 3.117-1.075" transform="translate(-233 -1622) translate(20 1607) translate(213 15)"/>
                    <path fill="#FFB27D" d="M48.317 73.01c-1.81 2.191-5.121 4.005-7.797 5.212-2.31 1.045-7.193 3.302-7.193 3.302s-.75 3.403-2.765 4.212c-.82.33-1.502-.445-1.502-.445s-.389.846-1.022.817c-.67-.026-1.075-.672-1.075-.672s-.571.666-1.12.532c-.624-.156-.597-.957-.597-.957s-.956.365-1.08-.182c-.179-.79.574-2.02.616-2.087-.099.011-2.114.293-2.428-.277-.38-.688 2.023-1.168 3.527-2.65 1.866-1.836 4.507-1.208 4.507-1.208l12.664-9.801c1.476-.001 2.755.006 3.787.08 3.115.222 4.007 1.06 1.478 4.124" transform="translate(-233 -1622) translate(20 1607) translate(213 15)"/>
                    <path fill="#E98875" d="M24.784 82.738s.937-.916.878.515c1.367-1.627 1.863-.778 1.377 1.154 1.373-2.217 2.126-1.702 2.021.023 1.2-1.755 1.524-.591 1.524-.591s-.236-1.488-1.176-.325c-.023-1.65-1.29-1.4-2.02-.108.318-2.024-.484-1.865-1.465-.781.142-1.347-.836-.642-1.14.113" transform="translate(-233 -1622) translate(20 1607) translate(213 15)"/>
                    <path fill="#ED9D66" d="M48.317 73.01c-1.81 2.191-5.121 4.005-7.797 5.212 3.06-3.486 5.052-6.775 6.319-9.335 3.115.221 4.007 1.059 1.478 4.123" transform="translate(-233 -1622) translate(20 1607) translate(213 15)"/>
                    <path fill="#FFB27D" d="M74.676 74.015c2.015 2.005 5.486 3.488 8.266 4.43 2.402.815 8.492 2.768 8.492 2.768s1.076 3.314 3.161 3.923c.849.248 1.452-.59 1.452-.59s.47.805 1.097.715c.664-.091 1.004-.774 1.004-.774s.633.608 1.167.42c.606-.216.5-1.01.5-1.01s.988.27 1.058-.286c.101-.804-.768-1.955-.816-2.018.1.002 2.132.087 2.39-.51.311-.722-2.127-.967-3.769-2.296-2.035-1.645-4.602-.764-4.602-.764L79.507 69.32c-1.47.143-2.74.274-3.76.449-3.08.523-3.887 1.444-1.07 4.247" transform="translate(-233 -1622) translate(20 1607) translate(213 15)"/>
                    <path fill="#E98875" d="M100.055 81.59s-1.022-.82-.824.598c-1.52-1.486-1.93-.593-1.258 1.282-1.583-2.072-2.282-1.487-2.01.22-1.365-1.63-1.574-.44-1.574-.44s.09-1.504 1.139-.438c-.138-1.643 1.147-1.518 2-.304-.514-1.983.3-1.903 1.382-.92-.272-1.326.769-.72 1.145.002" transform="translate(-233 -1622) translate(20 1607) translate(213 15)"/>
                    <path fill="#ED9D66" d="M74.676 74.015c2.015 2.005 5.486 3.488 8.266 4.43-3.383-3.172-5.686-6.253-7.196-8.677-3.078.523-3.886 1.444-1.07 4.247" transform="translate(-233 -1622) translate(20 1607) translate(213 15)"/>
                    <path fill="#6301BB" d="M68.86 82.445c-4.573.63-9.676-1.486-14.13-4.234-2.807-1.727-5.357-3.707-7.352-5.402-2.651-2.252-4.325-4.004-4.325-4.004s1.076-7.218 2.684-14.098c.657-2.814 2.173-4.394 4.064-5.494 3.103 2.96 12.614 10.437 28.66 9.375.526 4.411 1.136 9.839 1.136 9.839s.554 12.46-10.737 14.018" transform="translate(-233 -1622) translate(20 1607) translate(213 15)"/>
                    <path fill="#E98875" d="M77.032 101.018c-2.88-.96-5.661-.447-7.939-.247-2.86.256-7.272.596-7.272.596l-.005-2.933c1.765.327 5.873 1.071 7.814 1.318 2.271.285 5.41-1.09 7.402 1.266" transform="translate(-233 -1622) translate(20 1607) translate(213 15)"/>
                    <path fill="#ED7D2B" d="M61.828 97.425c-10.206.433-19.029-7.069-27.618-2.887 0 0 3.593-4.489 11.086-2.802 7.493 1.687 12.69 4.848 16.516 4.601l.016 1.088M102.798 98.206c-.295 2.446-1.805 5.068-3.816 6.341-2.28 1.445-15.412 3.519-36.966-1.318l-.005-.003-.19-1.86c4.104-5.763 11.945-1.753 21.826.604 7.003 1.673 15.056-1.673 19.15-3.764" transform="translate(-233 -1622) translate(20 1607) translate(213 15)"/>
                    <path fill="#FFB27D" d="M79.375 99.603s.435.269.268.755c-.13.371-.534.372-.557.371 0 0 .4.814-.052 1.088-.597.363-.81-.388-1.89-.76-.037-.014-.076-.025-.112-.039-2.88-.96-5.661-.447-7.939-.247-2.86.256-7.272.596-7.272.596l-.009-5.03s3.825.228 6.093.155c1.216-.038 1.038-.927 3.033-1.472 1.272-.35 5.028 1.415 5.88 1.48 1.692.132 2.45.172 2.64.524.11.205-.193.454-.193.454s.49.035.554.54c.05.396-.476.56-.476.56s.58-.07.655.43c.058.374-.623.595-.623.595" transform="translate(-233 -1622) translate(20 1607) translate(213 15)"/>
                    <path fill="#E15B7D" d="M78.42 100.776l-.21.587s.395.404.591.066c.197-.338-.382-.653-.382-.653M79.057 99.862l-.14.62s.488.021.55-.304c.064-.325-.41-.316-.41-.316M79.212 98.813l-.006.533s.41.092.434-.27c.023-.361-.428-.263-.428-.263M79.14 97.79l.079.49s.356.019.28-.352c-.057-.282-.359-.137-.359-.137M78.957 97.018l.07.298s.243-.072.206-.235c-.038-.163-.276-.063-.276-.063" transform="translate(-233 -1622) translate(20 1607) translate(213 15)"/>
                    <path fill="#ED7D2B" d="M76.097 88.416s-6.232.108-8.132 1.737c4.1-3.75 7.104-3.22 8.132-1.737M48.087 88.088s6.17-1.294 10.452 4.593c-3.228-7.21-9.39-6.053-10.452-4.593" transform="translate(-233 -1622) translate(20 1607) translate(213 15)"/>
                    <path fill="#ED9D66" d="M53.833 48.743c.618-.032 1.227-.045 1.833-.068.606-.026 1.208-.05 1.801-.117.15-.011.296-.033.444-.05.15-.019.308-.044.464-.056.313-.022.63-.039.951-.002.317.034.65.1.936.297.14.094.26.235.318.393.07.156.055.324.035.475-.046-.311-.214-.564-.475-.657-.249-.11-.544-.122-.832-.12-.29.01-.585.034-.879.081l-.444.068c-.155.023-.31.05-.466.065-.623.06-1.245.063-1.862.009-.616-.05-1.228-.146-1.824-.318M70.515 48.964c-.601.154-1.216.23-1.834.261-.617.035-1.24.013-1.86-.066-.155-.02-.31-.051-.464-.079l-.442-.082c-.292-.056-.586-.09-.876-.109-.288-.01-.583-.008-.835.095-.263.084-.44.332-.495.642-.015-.151-.024-.32.05-.474.062-.156.186-.292.33-.383.292-.187.626-.243.944-.267.322-.027.638 0 .95.03.156.017.313.048.463.07.147.023.293.05.442.065.59.085 1.192.128 1.797.172.605.042 1.213.074 1.83.125" transform="translate(-233 -1622) translate(20 1607) translate(213 15)"/>
                    <path fill="#44057D" d="M54.73 78.21c-2.807-1.726-5.357-3.706-7.352-5.401 1.2-3.847 1.807-7.956 2.778-11.89.08-.324.172-.666.408-.906.234-.239.66-.325.9-.092.177.171.196.442.2.686.023 1.255-.096 2.508-.133 3.762-.138 4.785.998 9.593 3.199 13.842M55.453 60.48c.504 2.056 1.19 3.967 2.121 5.733.926 1.764 2.082 3.374 3.45 4.769 1.37 1.394 2.956 2.582 4.7 3.542 1.747.966 3.644 1.69 5.689 2.238-2.107.282-4.305-.05-6.34-.817-2.036-.772-3.924-1.995-5.467-3.572-1.545-1.577-2.73-3.489-3.46-5.54-.725-2.049-1.015-4.252-.693-6.353" transform="translate(-233 -1622) translate(20 1607) translate(213 15)"/>
                    <path fill="#AEC6D6" d="M98.028 25c-.307 0-.558.25-.558.558 0 .308.25.558.558.558.307 0 .557-.25.557-.558 0-.307-.25-.557-.557-.557zm0 1.613c-.581 0-1.054-.473-1.054-1.055 0-.581.473-1.054 1.054-1.054.581 0 1.054.473 1.054 1.054 0 .582-.473 1.055-1.054 1.055zM14.692 89.145c-.308 0-.558.25-.558.557 0 .307.25.558.558.558.307 0 .557-.25.557-.558 0-.307-.25-.557-.557-.557zm0 1.611c-.582 0-1.055-.473-1.055-1.054 0-.581.473-1.054 1.055-1.054.58 0 1.054.473 1.054 1.054 0 .581-.473 1.054-1.054 1.054zM113.617 77.993c-.308 0-.558.25-.558.557 0 .308.25.558.558.558.307 0 .557-.25.557-.558 0-.307-.25-.557-.557-.557zm0 1.612c-.582 0-1.055-.473-1.055-1.055 0-.581.473-1.054 1.055-1.054.581 0 1.054.473 1.054 1.054 0 .582-.473 1.055-1.054 1.055z" transform="translate(-233 -1622) translate(20 1607) translate(213 15)"/>
                    <path fill="#73D6CD" d="M71.858 5.95c0 .445-.361.806-.806.806-.445 0-.806-.36-.806-.806 0-.445.36-.806.806-.806.445 0 .806.361.806.806M105.946 73.278c0 .446-.36.807-.806.807-.445 0-.806-.361-.806-.807 0-.445.36-.805.806-.805.445 0 .806.36.806.805M10.026 26.364c0 .445-.36.806-.806.806-.445 0-.806-.36-.806-.806 0-.445.361-.806.806-.806.445 0 .806.361.806.806M22.111 74.492c0 .445-.36.806-.806.806-.445 0-.806-.36-.806-.806 0-.445.361-.806.806-.806.445 0 .806.361.806.806" transform="translate(-233 -1622) translate(20 1607) translate(213 15)"/>
                    <path fill="#FFB93E" d="M108.065 12.367c0 1.941-1.574 3.515-3.515 3.515-1.942 0-3.516-1.574-3.516-3.515s1.574-3.515 3.516-3.515c1.941 0 3.515 1.574 3.515 3.515" transform="translate(-233 -1622) translate(20 1607) translate(213 15)"/>
                    <path fill="#73D6CD" d="M113.617 23.48c0 .535-.434.969-.97.969-.535 0-.969-.434-.969-.97 0-.535.434-.968.97-.968.535 0 .969.433.969.969" transform="translate(-233 -1622) translate(20 1607) translate(213 15)"/>
                    <path fill="#FFB93E" d="M79.458 12.936c-.858 0-1.555.698-1.555 1.556 0 .857.697 1.555 1.555 1.555s1.556-.698 1.556-1.555c0-.858-.698-1.556-1.556-1.556zm0 3.608c-1.131 0-2.052-.92-2.052-2.052 0-1.132.92-2.053 2.052-2.053 1.132 0 2.053.92 2.053 2.053 0 1.131-.92 2.052-2.053 2.052zM47.702 14.492c0 1.173-.951 2.124-2.125 2.124s-2.125-.95-2.125-2.124c0-1.174.951-2.125 2.125-2.125s2.125.951 2.125 2.125M9.912 71.204c0 1.174-.951 2.125-2.124 2.125-1.174 0-2.125-.951-2.125-2.125 0-1.173.951-2.124 2.125-2.124 1.173 0 2.124.951 2.124 2.124M17.384 11.727c-1.348 0-2.444 1.096-2.444 2.444 0 1.348 1.096 2.444 2.444 2.444 1.348 0 2.444-1.096 2.444-2.444 0-1.348-1.096-2.444-2.444-2.444zm0 5.385c-1.622 0-2.94-1.32-2.94-2.94 0-1.622 1.318-2.942 2.94-2.942 1.621 0 2.94 1.32 2.94 2.941 0 1.622-1.319 2.94-2.94 2.94zM110.104 59.34c-1.348 0-2.444 1.096-2.444 2.444 0 1.348 1.096 2.444 2.444 2.444 1.348 0 2.444-1.096 2.444-2.444 0-1.348-1.096-2.444-2.444-2.444zm0 5.385c-1.622 0-2.94-1.32-2.94-2.94 0-1.622 1.318-2.942 2.94-2.942 1.622 0 2.94 1.32 2.94 2.941 0 1.622-1.318 2.94-2.94 2.94z" transform="translate(-233 -1622) translate(20 1607) translate(213 15)"/>
                    <path fill="#BEE1DE" d="M22.188 26.036c-.487 0-.883.396-.883.883 0 .486.396.882.883.882s.883-.396.883-.882c0-.487-.396-.883-.883-.883zm0 2.262c-.76 0-1.38-.619-1.38-1.38 0-.76.62-1.379 1.38-1.379.76 0 1.38.619 1.38 1.38 0 .76-.62 1.379-1.38 1.379zM18.223 63.826c-.486 0-.882.396-.882.883s.396.883.882.883c.487 0 .883-.396.883-.883s-.396-.883-.883-.883zm0 2.263c-.76 0-1.38-.62-1.38-1.38 0-.76.62-1.38 1.38-1.38.761 0 1.38.62 1.38 1.38 0 .76-.619 1.38-1.38 1.38zM52.231 7.406c-.487 0-.883.396-.883.883s.396.883.883.883.883-.396.883-.883-.396-.883-.883-.883zm0 2.262c-.76 0-1.38-.618-1.38-1.38 0-.76.62-1.379 1.38-1.379.76 0 1.38.62 1.38 1.38 0 .76-.62 1.38-1.38 1.38z" transform="translate(-233 -1622) translate(20 1607) translate(213 15)"/>
                </g>
            </g>
        </g>
    </g>
</svg>
