<svg xmlns="http://www.w3.org/2000/svg" width="33" height="33" viewBox="0 0 33 33">
    <g fill="none" fill-rule="evenodd">
        <g>
            <g transform="translate(-353.000000, -176.000000) translate(353.000000, 176.000000)">
                <path d="M0 0H33V33H0z"/>
                <path fill="#62CEFF" fill-opacity=".201" stroke="#29B6F6" stroke-linecap="round" stroke-linejoin="round" stroke-width="1.6" d="M27.844 6.188H5.156c-.57 0-1.031.461-1.031 1.03v18.563c0 .57.462 1.032 1.031 1.032h22.688c.57 0 1.031-.462 1.031-1.032V7.22c0-.57-.462-1.032-1.031-1.032zM11.872 18.563c-1.708 0-3.093-1.386-3.093-3.094 0-1.709 1.385-3.094 3.093-3.094 1.709 0 3.094 1.385 3.094 3.094 0 .82-.326 1.607-.906 2.187-.58.58-1.367.907-2.188.907h0z"/>
                <path stroke="#29B6F6" stroke-linecap="round" stroke-linejoin="round" stroke-width="1.6" d="M19.594 14.438L24.75 14.438M19.594 18.563L24.75 18.563"/>
                <circle cx="11.872" cy="15.469" r="3.094" fill="#62CEFF" fill-opacity=".201" stroke="#29B6F6" stroke-linecap="round" stroke-linejoin="round" stroke-width="1.6"/>
                <path stroke="#29B6F6" stroke-linecap="round" stroke-linejoin="round" stroke-width="1.6" d="M7.877 21.656c.471-1.821 2.114-3.093 3.995-3.094 1.881 0 3.524 1.273 3.995 3.094"/>
                <rect width="24.75" height="20.625" x="4.125" y="6.188" stroke="#29B6F6" stroke-linecap="round" stroke-linejoin="round" stroke-width="1.6" rx="1.04"/>
            </g>
        </g>
    </g>
</svg>
