<svg xmlns="http://www.w3.org/2000/svg" width="118" height="44" viewBox="0 0 118 44">
    <g fill="none" fill-rule="evenodd">
        <g fill="#FF5722">
            <g>
                <path d="M212.752 38.68c1.009.19 2.018.475 3.028.857 1.01.384 1.851.89 2.522 1.518.45.382.793.797 1.027 1.24.236.447.404.9.506 1.361.102.46.157.91.166 1.35.012.438.018.858.018 1.257-.068.735-.18 1.54-.335 2.423-.158.88-.338 1.768-.54 2.664-.2.896-.425 1.761-.672 2.59-.247.832-.493 1.555-.74 2.166-.248.564-.517.926-.808 1.093-.292.171-.696.169-1.211-.002-3.052-.872-4.464-2.347-4.24-4.502.023-.437.095-.954.22-1.549.12-.597.247-1.192.369-1.789.123-.597.23-1.168.32-1.71.088-.542.118-.98.084-1.307-.034-.33-.14-.5-.319-.52-.181-.017-.484.178-.91.587-.358.295-.762.71-1.21 1.246-.449.534-.88 1.126-1.296 1.772-.416.65-.785 1.336-1.11 2.06-.326.728-.545 1.433-.656 2.125-.113.689-.1 1.347.033 1.982.136.631.46 1.165.977 1.603.65.601 1.373 1.16 2.17 1.679.797.519 1.592 1.023 2.388 1.516.795.492 1.55.99 2.255 1.49.707.5 1.29 1.037 1.75 1.611.46.573.75 1.194.874 1.855.123.66.006 1.393-.355 2.18-.223.572-.537 1.185-.94 1.84-.404.655-.943 1.268-1.614 1.838-.674.57-1.493 1.055-2.458 1.457-.964.401-2.12.64-3.465.714-1.795.116-3.544-.185-5.25-.871-1.705-.686-3.463-1.9-5.281-3.593-.965-.832-1.468-1.45-1.513-1.873 0-.448.213-.814.638-1.104.405-.191.83-.345 1.279-.462.449-.116.903-.172 1.363-.168.46.002.898.055 1.312.159.415.103.791.263 1.127.484 1.883 1.109 3.526 1.828 4.929 2.112 1.402.286 2.417.137 3.045-.466.246-.195.297-.44.15-.736-.146-.293-.425-.61-.84-.945-.416-.336-.93-.699-1.547-1.088-.618-.388-1.268-.79-1.952-1.205-.684-.412-1.369-.833-2.053-1.262-.684-.43-1.307-.873-1.865-1.33-.607-.475-1.152-1.021-1.634-1.633-.482-.612-.858-1.294-1.126-2.04-.27-.749-.416-1.561-.437-2.446-.006-.21-.002-.425.01-.643l-.028.073c-.258.607-.583 1.199-.975 1.77-.392.572-.824 1.132-1.295 1.68-.763.887-1.678 1.757-2.743 2.602-1.065.846-2.226 1.64-3.482 2.374-1.256.738-2.574 1.399-3.953 1.988-1.38.589-2.741 1.09-4.088 1.504-.268 1.253-.521 2.453-.756 3.606-.237 1.153-.443 2.278-.623 3.377-.114.346-.27.572-.471.68-.203.107-.594.108-1.178.001-.583-.15-1.15-.292-1.699-.427-.55-.137-1.038-.316-1.463-.534-.426-.22-.746-.492-.958-.825-.214-.328-.253-.764-.12-1.304.202-.503.387-1.349.556-2.54.169-1.193.32-2.552.454-4.073.135-1.525.268-3.109.404-4.754.135-1.646.268-3.17.403-4.573.136-1.402.287-2.583.454-3.545.168-.96.365-1.51.589-1.65.853-.55 1.795-1.14 2.826-1.77 1.033-.63 2.097-1.232 3.197-1.809 1.098-.575 2.204-1.095 3.314-1.557 1.11-.462 2.181-.805 3.212-1.025 1.032-.22 1.992-.284 2.879-.188.884.096 1.653.41 2.304.946.76.75 1.463 1.587 2.102 2.51.64.923 1.137 2.114 1.497 3.567.095.432.147.853.156 1.264.205-.717.508-1.494.904-2.333.482-1.017 1.047-2.032 1.7-3.047.65-1.016 1.366-1.992 2.152-2.933.785-.94 1.58-1.771 2.388-2.488.292-.285.651-.578 1.076-.883.427-.303.904-.562 1.431-.778.527-.216 1.099-.373 1.716-.47.617-.097 1.262-.107 1.935-.02zm-44.63 9.698c1.156.195 2.114.51 2.879.939.852.498 1.473 1.075 1.865 1.726.393.65.68 1.42.86 2.303.246 1.47.301 3.103.167 4.877-.133 1.773-.466 3.55-.992 5.312-.528 1.76-1.245 3.417-2.153 4.954-.91 1.536-2.025 2.817-3.348 3.837-.897.607-1.84 1.001-2.825 1.187-.989.189-2.121.206-3.398.065-.854-.095-1.73-.23-2.627-.408-.896-.178-1.713-.431-2.455-.757-.606-.267-1.2-.605-1.783-1.008-.584-.406-1.042-.858-1.38-1.36-.538-.824-.941-1.744-1.21-2.764-.271-1.023-.392-2.092-.37-3.22.022-1.128.19-2.283.502-3.48.317-1.195.776-2.377 1.382-3.556.605-1.179 1.35-2.33 2.237-3.46.886-1.128 1.912-2.19 3.077-3.19.786-.612 1.722-1.133 2.811-1.565 1.087-.431 2.124-.661 3.112-.684 1.278-.026 2.494.056 3.65.252zm55.263 17.59c.604.136 1.099.37 1.48.708.38.337.661.719.84 1.144.18.423.276.856.287 1.297.01.439-.029.827-.117 1.162-.068.253-.197.556-.387.912-.192.356-.427.684-.707.989-.28.304-.618.569-1.01.794-.392.225-.835.35-1.329.374-1.053.082-1.95-.211-2.692-.865-.74-.656-1.086-1.616-1.043-2.891.023-.559.14-1.091.354-1.6.213-.508.522-.944.926-1.31.402-.368.891-.624 1.462-.768.574-.143 1.217-.129 1.936.054zm-78.612-14.279c1.156.172 2.114.44 2.879.81.85.427 1.472.921 1.865 1.476.393.557.679 1.213.858 1.966.247 1.251.304 2.639.17 4.144-.135 1.507-.467 3.011-.994 4.495-.527 1.484-1.245 2.872-2.152 4.15-.91 1.279-2.026 2.33-3.348 3.15-.897.485-1.839.787-2.826.913-.988.125-2.121.105-3.397-.055-.853-.108-1.73-.25-2.627-.429-.897-.176-1.714-.414-2.455-.708-.606-.241-1.2-.54-1.784-.895-.582-.355-1.042-.743-1.378-1.168-.54-.697-.942-1.467-1.211-2.317-.271-.85-.392-1.733-.37-2.664.021-.93.191-1.878.503-2.86.316-.979.774-1.948 1.381-2.914.605-.968 1.35-1.91 2.237-2.839.886-.93 1.913-1.805 3.077-2.63.785-.506 1.722-.938 2.811-1.292 1.086-.356 2.123-.547 3.112-.56 1.279-.018 2.495.056 3.649.227zm92.07 12.977c.604.138 1.097.383 1.48.738.38.354.66.758.84 1.207.18.45.275.91.286 1.378.01.466-.029.88-.117 1.24-.068.27-.196.595-.388.977-.191.38-.425.735-.705 1.06-.282.327-.619.615-1.01.861-.392.244-.836.382-1.33.417-1.054.101-1.951-.2-2.692-.887-.739-.69-1.088-1.709-1.042-3.073.023-.597.139-1.164.352-1.71.215-.542.524-1.013.928-1.41.402-.396.891-.673 1.461-.833.573-.16 1.218-.15 1.937.035zM164 53.742c-.583.542-1.166 1.247-1.749 2.108-.584.859-1.127 1.796-1.631 2.807-.505 1.015-.915 1.973-1.23 2.89-.313.897-.537 1.815-.67 2.76-.137.945-.183 1.817-.137 2.624.046.807.202 1.497.472 2.07.27.577.661.931 1.176 1.063.472.13.966.045 1.481-.263.516-.305 1.032-.777 1.548-1.42.516-.642 1.004-1.439 1.463-2.396.46-.957.858-2.002 1.196-3.137.291-.933.526-1.965.706-3.09.18-1.122.268-2.17.268-3.134 0-.983-.106-1.812-.32-2.484-.212-.672-.542-1.038-.992-1.1-.47-.077-.999.16-1.581.702zm-23.35 2.432c-.581.45-1.165 1.033-1.748 1.747-.584.715-1.127 1.49-1.631 2.328-.505.84-.914 1.633-1.23 2.39-.312.744-.536 1.505-.672 2.288-.135.785-.18 1.51-.135 2.185.047.673.202 1.251.472 1.74.268.486.661.794 1.177.918.472.123.964.066 1.48-.176.516-.241 1.032-.622 1.549-1.148.515-.524 1.004-1.183 1.463-1.975.459-.794.856-1.666 1.195-2.613.29-.78.525-1.643.705-2.587.18-.945.27-1.826.27-2.637 0-.83-.107-1.531-.32-2.098-.212-.57-.544-.88-.994-.936-.468-.069-.998.126-1.58.574zm86.4-22.674c.674.056 1.408.192 2.204.416.796.223 1.486.518 2.07.885.603.392.98.833 1.127 1.324.145.49.117 1.143-.084 1.954-.585 2.259-1.161 4.526-1.734 6.8-.571 2.278-1.12 4.501-1.649 6.68-.526 2.177-1.007 4.255-1.446 6.237-.437 1.984-.824 3.815-1.16 5.504-.111.591-.287.966-.522 1.126-.235.161-.611.183-1.126.068-.628-.076-1.207-.19-1.734-.342-.527-.153-1.037-.352-1.53-.6-.517-.27-.86-.592-1.026-.962-.169-.373-.197-.949-.085-1.739.18-1.573.431-3.43.757-5.583.325-2.154.69-4.384 1.094-6.693.404-2.311.818-4.61 1.245-6.9.427-2.292.83-4.356 1.211-6.196.179-.889.443-1.472.79-1.752.348-.276.88-.354 1.598-.227zm13.458-3.44c.674.06 1.407.206 2.202.444.797.237 1.486.548 2.072.937.604.415.98.884 1.125 1.406.145.521.119 1.214-.082 2.077-.586 2.403-1.163 4.815-1.734 7.237-.572 2.425-1.122 4.792-1.649 7.113-.527 2.32-1.008 4.534-1.446 6.649-.438 2.114-.825 4.069-1.161 5.868-.112.63-.287 1.031-.521 1.207-.235.173-.612.2-1.128.083-.628-.075-1.205-.19-1.734-.346-.526-.156-1.036-.365-1.529-.625-.517-.284-.859-.622-1.025-1.017-.17-.392-.198-1.01-.085-1.852.18-1.677.43-3.662.756-5.961.326-2.298.69-4.679 1.094-7.144.403-2.465.818-4.919 1.245-7.358.426-2.442.83-4.645 1.21-6.603.18-.95.443-1.572.792-1.869.348-.294.88-.377 1.598-.245zm-50.08 20.224c-.639.12-1.358.33-2.153.627-.797.298-1.61.682-2.44 1.152-.36 1.249-.7 2.531-1.025 3.847-.326 1.315-.656 2.68-.994 4.09 1.594-.624 2.983-1.364 4.172-2.222 1.189-.856 2.166-1.732 2.926-2.613.764-.882 1.302-1.72 1.617-2.501.314-.782.38-1.42.202-1.901-.068-.266-.309-.443-.725-.529-.414-.087-.94-.069-1.58.05z" transform="translate(-148 -347) translate(20 317)"/>
            </g>
        </g>
    </g>
</svg>
