<svg width="28" height="28" xmlns="http://www.w3.org/2000/svg">
    <g stroke="#29B6F6" fill="none" fill-rule="evenodd" stroke-linecap="round" stroke-linejoin="round">
        <path d="M12.376 1.577c.91-.77 2.38-.77 3.265 0l2.055 1.759c.39.325 1.132.599 1.652.599h2.211a2.523 2.523 0 0 1 2.51 2.515v2.215c0 .52.274 1.25.6 1.641l1.755 2.059c.768.912.768 2.384 0 3.27l-1.756 2.059c-.325.39-.598 1.12-.598 1.641v2.215a2.523 2.523 0 0 1-2.51 2.515h-2.212c-.52 0-1.249.274-1.64.6l-2.054 1.758c-.91.77-2.38.77-3.265 0l-2.056-1.759c-.39-.325-1.131-.599-1.639-.599H6.418a2.523 2.523 0 0 1-2.51-2.515v-2.228c0-.508-.26-1.25-.586-1.628l-1.756-2.072c-.755-.899-.755-2.358 0-3.257l1.756-2.072c.325-.39.585-1.12.585-1.628V6.463a2.523 2.523 0 0 1 2.51-2.515h2.251c.52 0 1.25-.274 1.64-.6l2.068-1.771zM14.002 8.977v6.293" stroke-width="2"/>
        <path stroke-width="2.8" d="M13.994 19.231h.012"/>
    </g>
</svg>
